<svg id="icon_instagram" xmlns="http://www.w3.org/2000/svg" xmlns:xlink="http://www.w3.org/1999/xlink" width="20" height="20" viewBox="0 0 20 20">
  <defs>
    <clipPath id="clip-path">
      <rect id="사각형_25" data-name="사각형 25" width="20" height="20" fill="#fff"/>
    </clipPath>
  </defs>
  <g id="그룹_48" data-name="그룹 48" clip-path="url(#clip-path)">
    <path id="패스_37" data-name="패스 37" d="M10.06,0C.731,0,0,.73,0,10.06v.182C0,19.572.731,20.3,10.06,20.3h.182c9.33,0,10.06-.731,10.06-10.06v-.091C20.3.737,19.566,0,10.151,0ZM8.121,2.03h4.061c5.649,0,6.091.442,6.091,6.091v4.061c0,5.649-.442,6.091-6.091,6.091H8.121c-5.649,0-6.091-.442-6.091-6.091V8.121c0-5.649.442-6.091,6.091-6.091m7.1,2.03a1.015,1.015,0,1,0,1.018,1.012,1.015,1.015,0,0,0-1.018-1.012M10.14,5.076a5.076,5.076,0,1,0,5.088,5.064A5.076,5.076,0,0,0,10.14,5.076m.005,2.03a3.045,3.045,0,1,1-3.039,3.052,3.046,3.046,0,0,1,3.039-3.052" transform="translate(0 -0.181)" fill="#fff"/>
  </g>
</svg>
