<svg xmlns="http://www.w3.org/2000/svg" xmlns:xlink="http://www.w3.org/1999/xlink" width="48" height="48" viewBox="0 0 48 48"><script xmlns=""/>
  <defs>
    <clipPath id="clip-path">
      <rect id="사각형_11908" data-name="사각형 11908" width="23" height="23" transform="translate(-0.228 -0.386)" fill="#fff"/>
    </clipPath>
  </defs>
  <g id="그룹_34380" data-name="그룹 34380" transform="translate(-379 -4051.334)">
    <circle id="타원_23" data-name="타원 23" cx="24" cy="24" r="24" transform="translate(379 4051.334)" fill="#7e7e7e"/>
    <g id="그룹_34069" data-name="그룹 34069" transform="translate(391.228 4063.721)">
      <g id="그룹_33955" data-name="그룹 33955" transform="translate(0 0)" clip-path="url(#clip-path)">
        <path id="패스_12102" data-name="패스 12102" d="M22.85,7.165a8.846,8.846,0,0,0-.5-3.085A6.011,6.011,0,0,0,21.322,2.3,5.673,5.673,0,0,0,19.537.873,5.991,5.991,0,0,0,17.494.231C16.982.172,16.469.119,15.956.1,15.2.066,14.434.063,13.673.046A.5.5,0,0,1,13.537,0H9.358a1.066,1.066,0,0,1-.2.046c-.281,0-.56-.007-.84,0-.8.025-1.6.02-2.388.1A6.524,6.524,0,0,0,2.471,1.426,5.712,5.712,0,0,0,.565,3.994,7.343,7.343,0,0,0,.092,6.244C.08,6.52.063,6.8.046,7.072A1.118,1.118,0,0,1,0,7.255v8.387a.934.934,0,0,1,.046.2,8.382,8.382,0,0,0,.6,3.287,5.589,5.589,0,0,0,.961,1.544,5.867,5.867,0,0,0,1.942,1.471,6.115,6.115,0,0,0,1.932.562c.64.066,1.284.094,1.925.14a.635.635,0,0,1,.136.046h7.813a1.645,1.645,0,0,1,.273-.046,9.384,9.384,0,0,0,3.1-.455,6.047,6.047,0,0,0,2.054-1.213,6.119,6.119,0,0,0,1.872-3.357,8.862,8.862,0,0,0,.145-1.216c.029-.336.033-.675.052-1.011,0-.031.028-.06.044-.091V7.435a1.874,1.874,0,0,1-.046-.271m-2.14,9.384a5.305,5.305,0,0,1-.5,1.946,3.681,3.681,0,0,1-1.516,1.6,4.725,4.725,0,0,1-1.968.583l-1.435.113v.023c-2.247,0-4.491.007-6.736-.006-.728,0-1.459-.036-2.185-.091A5.1,5.1,0,0,1,4.378,20.2a3.735,3.735,0,0,1-1.751-1.842,5.316,5.316,0,0,1-.446-2.027q-.055-2.439-.09-4.878-.019-1.235,0-2.47c.016-.886.027-1.774.1-2.657a4.715,4.715,0,0,1,.791-2.4A3.908,3.908,0,0,1,5.46,2.358a9.726,9.726,0,0,1,2.052-.186c2.488-.007,4.974-.05,7.463-.031a10.465,10.465,0,0,1,2.647.259,4.05,4.05,0,0,1,1.87,1.029,4.092,4.092,0,0,1,1.091,2.147,11.832,11.832,0,0,1,.18,2.253c.012,2.241.037,4.481.039,6.722,0,.668-.035,1.335-.093,2" transform="translate(0 0.254)" fill="#fff" fill-rule="evenodd"/>
        <path id="패스_12103" data-name="패스 12103" d="M13.417,7.309a5.889,5.889,0,1,0,5.633,6.038,5.874,5.874,0,0,0-5.633-6.038m-.483,9.657a3.783,3.783,0,1,1,3.991-3.772,3.762,3.762,0,0,1-3.991,3.772" transform="translate(-1.705 -1.476)" fill="#fff" fill-rule="evenodd"/>
        <path id="패스_12104" data-name="패스 12104" d="M23.014,5.208A1.395,1.395,0,0,0,22.925,8a1.431,1.431,0,0,0,1.429-1.351,1.443,1.443,0,0,0-1.34-1.437" transform="translate(-5.075 -0.979)" fill="#fff" fill-rule="evenodd"/>
      </g>
    </g>
  </g>
</svg>