<svg xmlns="http://www.w3.org/2000/svg" xmlns:xlink="http://www.w3.org/1999/xlink" width="48" height="48" viewBox="0 0 48 48"><script xmlns=""/>
  <defs>
    <clipPath id="clip-path">
      <rect id="사각형_11959" data-name="사각형 11959" width="26" height="19" transform="translate(-0.447 0.07)" fill="#fff"/>
    </clipPath>
  </defs>
  <g id="그룹_34379" data-name="그룹 34379" transform="translate(-320 -4051.334)">
    <circle id="타원_22" data-name="타원 22" cx="24" cy="24" r="24" transform="translate(320 4051.334)" fill="#7e7e7e"/>
    <g id="그룹_34064" data-name="그룹 34064" transform="translate(331.447 4066.264)">
      <g id="그룹_34062" data-name="그룹 34062" transform="translate(0 0)" clip-path="url(#clip-path)">
        <path id="패스_12394" data-name="패스 12394" d="M24.841,2.774A3.176,3.176,0,0,0,22.6.531C20.619,0,12.686,0,12.686,0S4.751,0,2.773.531A3.179,3.179,0,0,0,.529,2.774,33.071,33.071,0,0,0,0,8.88a33.077,33.077,0,0,0,.529,6.107,3.179,3.179,0,0,0,2.244,2.243c1.978.531,9.913.531,9.913.531s7.933,0,9.912-.531a3.176,3.176,0,0,0,2.244-2.243,33.033,33.033,0,0,0,.53-6.107,33.026,33.026,0,0,0-.53-6.107M10.148,12.687V5.075L16.74,8.881Z" transform="translate(0.315 0.659)" fill="#fff"/>
      </g>
    </g>
  </g>
</svg>