<svg xmlns="http://www.w3.org/2000/svg" xmlns:xlink="http://www.w3.org/1999/xlink" id="logo" width="52" height="33" viewBox="0 0 120 75">
  <defs>
    <clipPath id="clip-path">
      <rect id="사각형_70" data-name="사각형 70" width="120" height="75" fill="#333"/>
    </clipPath>
  </defs>
  <g id="그룹_93" data-name="그룹 93" clip-path="url(#clip-path)">
    <path id="패스_395" data-name="패스 395" d="M43.617,14.181c.073.3.139.609.2.918-.061-.309-.126-.615-.2-.918" transform="translate(10.439 3.133)" fill="#fff"/>
    <path id="패스_396" data-name="패스 396" d="M39.776,19.881c-.284.117-.57.233-.853.352.283-.118.569-.234.853-.352" transform="translate(9.315 4.392)" fill="#fff"/>
    <path id="패스_397" data-name="패스 397" d="M43.819,15.135c.055.294.1.593.145.894-.043-.3-.09-.6-.145-.894" transform="translate(10.487 3.343)" fill="#fff"/>
    <path id="패스_398" data-name="패스 398" d="M43.972,16.106c.04.3.071.6.1.907-.027-.305-.058-.608-.1-.907" transform="translate(10.524 3.558)" fill="#fff"/>
    <path id="패스_399" data-name="패스 399" d="M42.051,18.956q-.428.167-.853.336.426-.168.853-.336" transform="translate(9.86 4.188)" fill="#fff"/>
    <path id="패스_400" data-name="패스 400" d="M44.076,17.094q.048.6.069,1.222-.02-.617-.069-1.222" transform="translate(10.548 3.776)" fill="#fff"/>
    <path id="패스_401" data-name="패스 401" d="M42.546,11.026l-.01.011c.068.147.139.289.2.437-.064-.149-.124-.3-.192-.448" transform="translate(10.18 2.436)" fill="#fff"/>
    <path id="패스_402" data-name="패스 402" d="M42.73,11.467c.135.315.262.636.382.961-.12-.325-.247-.646-.382-.961" transform="translate(10.226 2.533)" fill="#fff"/>
    <path id="패스_403" data-name="패스 403" d="M43.367,13.249q.139.467.26.945-.121-.478-.26-.945" transform="translate(10.379 2.927)" fill="#fff"/>
    <path id="패스_404" data-name="패스 404" d="M43.071,12.342q.171.474.322.962-.151-.487-.322-.962" transform="translate(10.308 2.726)" fill="#fff"/>
    <path id="패스_405" data-name="패스 405" d="M42.563,27.018c-.042.1-.082.2-.125.3.043-.1.083-.2.125-.3" transform="translate(10.156 5.969)" fill="#fff"/>
    <path id="패스_406" data-name="패스 406" d="M42.076,28.127c-.043.09-.09.181-.135.271.045-.09.092-.181.135-.271" transform="translate(10.037 6.214)" fill="#fff"/>
    <path id="패스_407" data-name="패스 407" d="M37.958,23.658l.306-.168-.306.168" transform="translate(9.084 5.189)" fill="#fff"/>
    <path id="패스_408" data-name="패스 408" d="M42.081,21.439l.281-.142-.281.142" transform="translate(10.071 4.705)" fill="#fff"/>
    <path id="패스_409" data-name="패스 409" d="M41.632,29.031c-.064.12-.129.238-.195.358.066-.12.13-.238.195-.358" transform="translate(9.917 6.414)" fill="#fff"/>
    <path id="패스_410" data-name="패스 410" d="M42.921,26.093c-.04.109-.082.217-.123.326.041-.109.083-.217.123-.326" transform="translate(10.243 5.765)" fill="#fff"/>
    <path id="패스_411" data-name="패스 411" d="M43.518,24.1l-.082.317.082-.317" transform="translate(10.395 5.325)" fill="#fff"/>
    <path id="패스_412" data-name="패스 412" d="M35.982,24.755h0l.035-.021c-.012.007-.024.012-.035.02" transform="translate(8.611 5.464)" fill="#fff"/>
    <path id="패스_413" data-name="패스 413" d="M43.714,23.224c-.016.081-.036.161-.053.243.017-.082.037-.162.053-.243" transform="translate(10.449 5.131)" fill="#fff"/>
    <path id="패스_414" data-name="패스 414" d="M44.018,21.252c-.012.1-.024.2-.036.294.012-.1.024-.2.036-.294" transform="translate(10.526 4.695)" fill="#fff"/>
    <path id="패스_415" data-name="패스 415" d="M43.215,25.156c-.01.032-.017.062-.028.094.011-.032.019-.062.028-.094" transform="translate(10.336 5.558)" fill="#fff"/>
    <path id="패스_416" data-name="패스 416" d="M43.9,22.17c-.012.083-.024.166-.037.249.014-.083.025-.166.037-.249" transform="translate(10.497 4.898)" fill="#fff"/>
    <path id="패스_417" data-name="패스 417" d="M38.121,34.212c-.107.126-.214.252-.325.378.11-.127.218-.253.325-.378" transform="translate(9.045 7.558)" fill="#fff"/>
    <path id="패스_418" data-name="패스 418" d="M40.031,22.526c.118-.062.234-.125.352-.186l-.352.186" transform="translate(9.58 4.935)" fill="#fff"/>
    <path id="패스_419" data-name="패스 419" d="M38.875,33.259c-.072.092-.15.183-.223.275.073-.092.151-.183.223-.275" transform="translate(9.25 7.348)" fill="#fff"/>
    <path id="패스_420" data-name="패스 420" d="M37.144,35.308c-.066.071-.126.142-.193.214.067-.072.128-.143.193-.214" transform="translate(8.843 7.801)" fill="#fff"/>
    <path id="패스_421" data-name="패스 421" d="M35.957,36.563c.043-.044.082-.087.125-.131-.041.043-.084.084-.126.126v0" transform="translate(8.605 8.049)" fill="#fff"/>
    <path id="패스_422" data-name="패스 422" d="M41.03,30.078c-.037.062-.071.123-.109.186.038-.062.072-.123.109-.186" transform="translate(9.793 6.645)" fill="#fff"/>
    <path id="패스_423" data-name="패스 423" d="M39.755,32.077c-.082.114-.161.226-.245.339.084-.114.164-.226.245-.339" transform="translate(9.456 7.087)" fill="#fff"/>
    <path id="패스_424" data-name="패스 424" d="M40.413,31.114c-.078.118-.16.238-.242.358.082-.12.164-.239.242-.358" transform="translate(9.614 6.874)" fill="#fff"/>
    <path id="패스_425" data-name="패스 425" d="M43.331,13.13c.014.049.03.1.046.145-.016-.049-.032-.1-.046-.145" transform="translate(10.37 2.9)" fill="#fff"/>
    <path id="패스_426" data-name="패스 426" d="M44.051,16.849c.01.1.022.2.031.3-.009-.1-.021-.2-.031-.3" transform="translate(10.542 3.722)" fill="#fff"/>
    <path id="패스_427" data-name="패스 427" d="M42.7,11.393c.014.031.026.06.038.09-.012-.031-.025-.06-.038-.09" transform="translate(10.219 2.517)" fill="#fff"/>
    <path id="패스_428" data-name="패스 428" d="M43.039,12.254c.012.035.026.072.038.109-.012-.037-.026-.073-.038-.109" transform="translate(10.3 2.707)" fill="#fff"/>
    <path id="패스_429" data-name="패스 429" d="M41.578,19.231q-.991.392-1.966.794.974-.4,1.966-.794" transform="translate(9.48 4.248)" fill="#fff"/>
    <path id="패스_430" data-name="패스 430" d="M43.936,15.867c.014.1.031.194.045.292-.014-.1-.031-.194-.045-.292" transform="translate(10.515 3.505)" fill="#fff"/>
    <path id="패스_431" data-name="패스 431" d="M44.668,18.1c-.938.342-1.863.695-2.782,1.051.92-.357,1.844-.709,2.782-1.051" transform="translate(10.024 3.997)" fill="#fff"/>
    <path id="패스_432" data-name="패스 432" d="M43.778,14.933c.016.083.035.164.051.247-.016-.083-.035-.164-.051-.247" transform="translate(10.477 3.299)" fill="#fff"/>
    <path id="패스_433" data-name="패스 433" d="M43.577,14.022c.016.065.033.128.05.193-.016-.065-.033-.128-.05-.193" transform="translate(10.429 3.098)" fill="#fff"/>
    <path id="패스_434" data-name="패스 434" d="M38.2,23.71q1.147-.628,2.264-1.218-1.117.592-2.264,1.218" transform="translate(9.143 4.969)" fill="#fff"/>
    <path id="패스_435" data-name="패스 435" d="M36.01,24.98q1.223-.7,2.414-1.352-1.192.656-2.414,1.352" transform="translate(8.618 5.22)" fill="#fff"/>
    <path id="패스_436" data-name="패스 436" d="M41.054,30.23c-.218.358-.449.718-.688,1.078.239-.36.47-.72.688-1.078" transform="translate(9.661 6.679)" fill="#fff"/>
    <path id="패스_437" data-name="패스 437" d="M42.024,28.349c-.138.276-.28.554-.43.833.15-.278.292-.556.43-.833" transform="translate(9.954 6.263)" fill="#fff"/>
    <path id="패스_438" data-name="패스 438" d="M42.861,26.36q-.154.4-.322.8.167-.4.322-.8" transform="translate(10.181 5.824)" fill="#fff"/>
    <path id="패스_439" data-name="패스 439" d="M40.282,31.406c-.185.272-.376.545-.574.819.2-.275.389-.547.574-.819" transform="translate(9.503 6.938)" fill="#fff"/>
    <path id="패스_440" data-name="패스 440" d="M42.531,27.265q-.227.524-.481,1.052.255-.527.481-1.052" transform="translate(10.064 6.023)" fill="#fff"/>
    <path id="패스_441" data-name="패스 441" d="M40.315,22.545q1.11-.582,2.189-1.132-1.078.548-2.189,1.132" transform="translate(9.648 4.731)" fill="#fff"/>
    <path id="패스_442" data-name="패스 442" d="M39.674,32.355c-.269.366-.549.733-.842,1.1.292-.371.573-.737.842-1.1" transform="translate(9.293 7.148)" fill="#fff"/>
    <path id="패스_443" data-name="패스 443" d="M37.962,34.522q-.415.478-.855.96.441-.482.855-.96" transform="translate(8.881 7.627)" fill="#fff"/>
    <path id="패스_444" data-name="패스 444" d="M37.165,35.483c-.354.383-.726.77-1.107,1.159.38-.388.752-.775,1.107-1.159" transform="translate(8.63 7.839)" fill="#fff"/>
    <path id="패스_445" data-name="패스 445" d="M38.793,33.484q-.357.443-.735.889.379-.447.735-.889" transform="translate(9.108 7.398)" fill="#fff"/>
    <path id="패스_446" data-name="패스 446" d="M41.539,29.324c-.17.306-.346.613-.53.921.185-.308.361-.614.53-.921" transform="translate(9.814 6.478)" fill="#fff"/>
    <path id="패스_447" data-name="패스 447" d="M44.107,20.4c-.025.347-.058.693-.1,1.041.038-.348.072-.695.1-1.041" transform="translate(10.533 4.506)" fill="#fff"/>
    <path id="패스_448" data-name="패스 448" d="M44,21.493c-.033.276-.072.551-.114.828.042-.277.081-.552.114-.828" transform="translate(10.504 4.748)" fill="#fff"/>
    <path id="패스_449" data-name="패스 449" d="M43.258,25.234c-.112.348-.233.7-.361,1.049.128-.35.249-.7.361-1.049" transform="translate(10.266 5.575)" fill="#fff"/>
    <path id="패스_450" data-name="패스 450" d="M42.308,21.5c.746-.377,1.483-.745,2.206-1.1-.723.352-1.46.719-2.206,1.1" transform="translate(10.125 4.506)" fill="#fff"/>
    <path id="패스_451" data-name="패스 451" d="M43.49,24.361c-.087.322-.178.646-.28.971.1-.325.193-.648.28-.971" transform="translate(10.341 5.382)" fill="#fff"/>
    <path id="패스_452" data-name="패스 452" d="M43.7,23.423c-.061.276-.125.552-.2.829.071-.277.135-.553.2-.829" transform="translate(10.411 5.175)" fill="#fff"/>
    <path id="패스_453" data-name="패스 453" d="M43.9,22.374q-.086.518-.193,1.038.108-.52.193-1.038" transform="translate(10.459 4.943)" fill="#fff"/>
    <path id="패스_454" data-name="패스 454" d="M87.726,56.369c-3.071-.587-5.448-2.485-8.08-3.909-.68-.368-1.391-1.1-2.189-.768-.987.409.172,1.435-.384,2.129-1.984-2.109-1.728-4.785-2.041-7.3-.258-2.055-1-2.515-2.953-1.763a24.883,24.883,0,0,1-3.924,1.52c-3.683.747-7.805-1.82-7.238-5.155,1.923,2.8,4.5,2.587,6.993,1.348,3.512-1.741,7.018-3.266,11.065-3.143,1.381.042,1.755-.8,1.729-2.1-.019-.966-.89-1.829-.584-2.63.855-2.233-.511-2.5-2.137-2.691-.59-.07-1.176-.171-1.775-.26,1.223-3.992,1.11-4.962-.741-6.221-.2.855-.4,1.687-.6,2.519-.63,2.58-1.723,3.265-4.2,2.262A16.872,16.872,0,0,0,62.6,28.945c-1.669.16-2.574-.684-3.4-1.938-1.428-2.165-1.063-4.32.147-6.618-2.886.752-4,2.707-4.557,4.951-.569,2.273.145,4.483,1.1,6.671-1.063-.15-1.91-.326-2.764-.376-.879-.05-2.065-.62-2.5.531a3.089,3.089,0,0,0,.807,3.464,5.455,5.455,0,0,0,2.547,1.084c1.162.313,2.322-.258,3.662-.085-2.38,4.323-4.9,8.346-6.385,12.849h5.308V68.135A38.486,38.486,0,0,0,99.452,56.587c-3.91.2-7.819.529-11.726-.219" transform="translate(12.063 4.505)" fill="#a50821"/>
    <path id="패스_455" data-name="패스 455" d="M60.721,30.686c.165-.853.947-1.017,1.682-1.063.514-.033,1.373.027,1.3.554-.141,1.044-1.311.822-2,1.137-.507-.02-1.124.073-.989-.628" transform="translate(14.527 6.543)" fill="#fff"/>
    <path id="패스_456" data-name="패스 456" d="M89.844,52.623V54.3H86.971v7.786h-2.02V54.3H82.065V52.623Z" transform="translate(19.64 11.626)" fill="#fff"/>
    <path id="패스_457" data-name="패스 457" d="M89.278,62.084V52.623h1.994v3.608H95V52.623H97v9.461H95V57.861H91.272v4.223Z" transform="translate(21.366 11.626)" fill="#fff"/>
    <path id="패스_458" data-name="패스 458" d="M26.907,17.643c5.219,0,8.188,2.925,8.188,7,0,2.48-1.044,5.079-3.305,8,4.38-2.446,9.138-4.848,14.22-7.07q1.1-.482,2.23-.954c.283-.118.568-.234.853-.352q.976-.4,1.966-.794l.853-.335q1.379-.537,2.784-1.052-.02-.617-.069-1.222c-.009-.1-.021-.2-.031-.3-.029-.3-.058-.608-.1-.907-.012-.1-.031-.194-.045-.292-.043-.3-.09-.6-.145-.894-.016-.083-.035-.165-.051-.247-.061-.309-.126-.615-.2-.918-.015-.065-.033-.128-.05-.193-.081-.319-.166-.634-.26-.945l-.045-.145c-.1-.325-.208-.646-.322-.961-.014-.037-.027-.073-.04-.109q-.18-.487-.382-.961l-.04-.09c-.063-.148-.135-.291-.2-.437C48.824,5.024,39.584,0,28.347,0,12.508,0,0,8.865,0,25.532H18.718a7.954,7.954,0,0,1,8.189-7.89" transform="translate(0 0)" fill="#bbb"/>
    <path id="패스_459" data-name="패스 459" d="M62.033,57.5a19,19,0,0,1,.224-4.741H28.373l4.05-2.837a86.441,86.441,0,0,0,11.9-9.825l.126-.126c.38-.389.751-.777,1.107-1.16.066-.071.129-.142.192-.214q.441-.482.855-.96c.109-.127.218-.253.325-.378.253-.3.5-.593.736-.889.073-.092.15-.184.222-.275.295-.371.573-.737.843-1.1.083-.114.162-.226.244-.339q.3-.41.574-.819c.081-.118.162-.238.242-.357.238-.361.47-.722.688-1.079.037-.062.072-.125.109-.186.186-.309.361-.615.532-.921l.193-.358q.225-.418.429-.833c.045-.089.093-.181.136-.27.171-.353.33-.7.481-1.054.043-.1.083-.2.125-.3.113-.27.219-.537.322-.8.04-.11.082-.219.121-.326.128-.352.249-.7.361-1.049.009-.032.017-.063.027-.1.1-.324.193-.647.28-.971.029-.105.055-.211.082-.316.071-.277.135-.553.2-.829.017-.082.037-.162.053-.243.073-.347.136-.692.193-1.038.014-.083.025-.165.038-.248.042-.277.081-.552.114-.828.011-.1.024-.2.035-.294.04-.347.072-.695.1-1.041-.723.352-1.46.719-2.206,1.1l-.283.142q-1.078.548-2.187,1.132l-.352.186q-1.115.592-2.264,1.219l-.3.168q-1.193.656-2.414,1.352l-.036.02A231.276,231.276,0,0,0,1.016,58.267V70.494H63.128L62.707,65.5Z" transform="translate(0.243 4.506)" fill="#bbb"/>
    <path id="패스_460" data-name="패스 460" d="M73.151,0a38.236,38.236,0,0,0-26.8,10.875,25.059,25.059,0,0,1,2.838,10.069,129.32,129.32,0,0,1,23.933-5.685c-.566.084-9.508,1.479-23.864,8.042A29.688,29.688,0,0,1,44.3,39.383a49.469,49.469,0,0,1-7.6,8.954,37.018,37.018,0,0,0,2.251,5.647H54.539c1.48-4.5,4-8.525,6.385-12.848-1.34-.173-2.5.4-3.663.085a5.465,5.465,0,0,1-2.547-1.084,3.088,3.088,0,0,1-.806-3.465c.434-1.15,1.62-.58,2.5-.53.854.049,1.7.225,2.764.376-.952-2.188-1.666-4.4-1.1-6.671.561-2.245,1.672-4.2,4.557-4.952-1.211,2.3-1.574,4.454-.147,6.619.827,1.253,1.73,2.1,3.4,1.936a16.9,16.9,0,0,1,8.057,1.258c2.48,1,3.574.317,4.2-2.261.2-.833.4-1.665.606-2.52,1.852,1.26,1.964,2.228.74,6.221.6.089,1.185.192,1.775.261,1.626.192,2.992.458,2.137,2.69-.306.8.565,1.665.585,2.63.026,1.3-.348,2.143-1.73,2.1-4.045-.123-7.552,1.4-11.063,3.143-2.5,1.239-5.071,1.457-6.995-1.347-.568,3.334,3.554,5.9,7.238,5.154a24.774,24.774,0,0,0,3.925-1.519c1.953-.753,2.7-.293,2.952,1.763.315,2.519.058,5.2,2.041,7.3.556-.693-.6-1.72.384-2.129.8-.331,1.508.4,2.189.768,2.634,1.426,5.009,3.322,8.08,3.911,3.908.747,7.816.42,11.726.219a37.248,37.248,0,0,0,6.561-11.824c.056-.3.212-.523.29-.885A37,37,0,0,0,111.215,37.5C111.215,16.79,94.173,0,73.151,0M84.03,16.75l-2.668-1.382L78.692,16.75l.511-2.928-2.16-2.073,2.984-.427,1.335-2.664,1.334,2.664,2.984.427L83.52,13.822Z" transform="translate(8.785 0)" fill="#bbb"/>
  </g>
</svg>