<svg id="logo" xmlns="http://www.w3.org/2000/svg" xmlns:xlink="http://www.w3.org/1999/xlink" width="52" height="33" viewBox="0 0 52 33">
  <defs>
    <clipPath id="clip-path">
      <rect id="사각형_70" data-name="사각형 70" width="52" height="33" fill="none"/>
    </clipPath>
  </defs>
  <g id="그룹_93" data-name="그룹 93" clip-path="url(#clip-path)">
    <path id="패스_395" data-name="패스 395" d="M43.617,14.181c.032.133.06.268.086.4-.026-.136-.055-.271-.086-.4" transform="translate(-20.193 -6.563)" fill="#fff"/>
    <path id="패스_396" data-name="패스 396" d="M39.292,19.881l-.369.155.369-.155" transform="translate(-18.02 -9.201)" fill="#fff"/>
    <path id="패스_397" data-name="패스 397" d="M43.819,15.135c.024.129.044.261.063.393-.019-.132-.039-.264-.063-.393" transform="translate(-20.286 -7.004)" fill="#fff"/>
    <path id="패스_398" data-name="패스 398" d="M43.972,16.106c.017.132.031.265.042.4-.012-.134-.025-.268-.042-.4" transform="translate(-20.357 -7.454)" fill="#fff"/>
    <path id="패스_399" data-name="패스 399" d="M41.567,18.956,41.2,19.1l.369-.148" transform="translate(-19.073 -8.773)" fill="#fff"/>
    <path id="패스_400" data-name="패스 400" d="M44.076,17.094q.021.266.03.538-.009-.272-.03-.538" transform="translate(-20.405 -7.911)" fill="#fff"/>
    <path id="패스_401" data-name="패스 401" d="M42.54,11.026l0,0c.03.064.06.127.088.192-.028-.066-.054-.133-.083-.2" transform="translate(-19.692 -5.103)" fill="#fff"/>
    <path id="패스_402" data-name="패스 402" d="M42.73,11.467c.059.139.113.28.165.423-.052-.143-.107-.284-.165-.423" transform="translate(-19.782 -5.307)" fill="#fff"/>
    <path id="패스_403" data-name="패스 403" d="M43.367,13.249q.06.205.113.416-.052-.21-.113-.416" transform="translate(-20.077 -6.132)" fill="#fff"/>
    <path id="패스_404" data-name="패스 404" d="M43.071,12.342q.074.209.14.423-.065-.214-.14-.423" transform="translate(-19.94 -5.712)" fill="#fff"/>
    <path id="패스_405" data-name="패스 405" d="M42.492,27.018c-.018.044-.035.088-.054.133.019-.045.036-.089.054-.133" transform="translate(-19.647 -12.504)" fill="#fff"/>
    <path id="패스_406" data-name="패스 406" d="M42,28.127c-.019.04-.039.08-.059.119.019-.04.04-.08.059-.119" transform="translate(-19.417 -13.017)" fill="#fff"/>
    <path id="패스_407" data-name="패스 407" d="M37.958,23.564l.133-.074-.133.074" transform="translate(-17.573 -10.871)" fill="#fff"/>
    <path id="패스_408" data-name="패스 408" d="M42.081,21.359,42.2,21.3l-.122.062" transform="translate(-19.482 -9.856)" fill="#fff"/>
    <path id="패스_409" data-name="패스 409" d="M41.521,29.031l-.084.157.084-.157" transform="translate(-19.184 -13.435)" fill="#fff"/>
    <path id="패스_410" data-name="패스 410" d="M42.851,26.093c-.017.048-.035.1-.053.143.018-.048.036-.1.053-.143" transform="translate(-19.814 -12.076)" fill="#fff"/>
    <path id="패스_411" data-name="패스 411" d="M43.471,24.1l-.035.14.035-.14" transform="translate(-20.109 -11.154)" fill="#fff"/>
    <path id="패스_412" data-name="패스 412" d="M35.982,24.744h0L36,24.735l-.015.009" transform="translate(-16.658 -11.447)" fill="#fff"/>
    <path id="패스_413" data-name="패스 413" d="M43.684,23.224c-.007.035-.016.071-.023.107.008-.036.016-.071.023-.107" transform="translate(-20.213 -10.748)" fill="#fff"/>
    <path id="패스_414" data-name="패스 414" d="M44,21.252c-.005.043-.01.086-.016.129.005-.043.01-.086.016-.129" transform="translate(-20.362 -9.835)" fill="#fff"/>
    <path id="패스_415" data-name="패스 415" d="M43.2,25.156c0,.014-.008.027-.012.041,0-.014.008-.027.012-.041" transform="translate(-19.994 -11.642)" fill="#fff"/>
    <path id="패스_416" data-name="패스 416" d="M43.876,22.17c-.005.037-.01.073-.016.11.006-.037.011-.073.016-.11" transform="translate(-20.305 -10.26)" fill="#fff"/>
    <path id="패스_417" data-name="패스 417" d="M37.937,34.212l-.141.167.141-.167" transform="translate(-17.498 -15.833)" fill="#fff"/>
    <path id="패스_418" data-name="패스 418" d="M40.031,22.422l.153-.082-.153.082" transform="translate(-18.533 -10.339)" fill="#fff"/>
    <path id="패스_419" data-name="패스 419" d="M38.749,33.259c-.031.04-.065.081-.1.121.032-.04.066-.081.1-.121" transform="translate(-17.894 -15.392)" fill="#fff"/>
    <path id="패스_420" data-name="패스 420" d="M37.035,35.308l-.084.094.084-.094" transform="translate(-17.107 -16.34)" fill="#fff"/>
    <path id="패스_421" data-name="패스 421" d="M35.957,36.489l.054-.057-.055.055v0" transform="translate(-16.646 -16.86)" fill="#fff"/>
    <path id="패스_422" data-name="패스 422" d="M40.968,30.078c-.016.027-.031.054-.047.082.017-.027.031-.054.047-.082" transform="translate(-18.945 -13.92)" fill="#fff"/>
    <path id="패스_423" data-name="패스 423" d="M39.616,32.077c-.035.05-.07.1-.106.149.037-.05.071-.1.106-.149" transform="translate(-18.292 -14.845)" fill="#fff"/>
    <path id="패스_424" data-name="패스 424" d="M40.276,31.114c-.034.052-.069.1-.1.157.035-.053.071-.105.1-.157" transform="translate(-18.598 -14.399)" fill="#fff"/>
    <path id="패스_425" data-name="패스 425" d="M43.331,13.13c.006.021.013.042.02.064-.007-.021-.014-.042-.02-.064" transform="translate(-20.061 -6.077)" fill="#fff"/>
    <path id="패스_426" data-name="패스 426" d="M44.051,16.849c0,.044.01.087.013.132,0-.045-.009-.088-.013-.132" transform="translate(-20.394 -7.798)" fill="#fff"/>
    <path id="패스_427" data-name="패스 427" d="M42.7,11.393l.017.04-.017-.04" transform="translate(-19.768 -5.273)" fill="#fff"/>
    <path id="패스_428" data-name="패스 428" d="M43.039,12.254l.017.048-.017-.048" transform="translate(-19.925 -5.671)" fill="#fff"/>
    <path id="패스_429" data-name="패스 429" d="M40.464,19.231q-.429.172-.852.349.422-.176.852-.349" transform="translate(-18.339 -8.9)" fill="#fff"/>
    <path id="패스_430" data-name="패스 430" d="M43.936,15.867c.006.043.013.085.019.128-.006-.043-.013-.085-.019-.128" transform="translate(-20.341 -7.343)" fill="#fff"/>
    <path id="패스_431" data-name="패스 431" d="M43.092,18.1c-.407.15-.807.306-1.206.463.4-.157.8-.312,1.206-.463" transform="translate(-19.392 -8.374)" fill="#fff"/>
    <path id="패스_432" data-name="패스 432" d="M43.778,14.933c.007.037.015.072.022.109-.007-.037-.015-.072-.022-.109" transform="translate(-20.267 -6.911)" fill="#fff"/>
    <path id="패스_433" data-name="패스 433" d="M43.577,14.022l.021.085-.021-.085" transform="translate(-20.174 -6.489)" fill="#fff"/>
    <path id="패스_434" data-name="패스 434" d="M38.2,23.028q.5-.276.981-.536-.484.26-.981.536" transform="translate(-17.687 -10.409)" fill="#fff"/>
    <path id="패스_435" data-name="패스 435" d="M36.01,24.223q.53-.307,1.046-.595-.516.288-1.046.595" transform="translate(-16.671 -10.935)" fill="#fff"/>
    <path id="패스_436" data-name="패스 436" d="M40.664,30.23c-.095.157-.194.316-.3.474.1-.158.2-.317.3-.474" transform="translate(-18.688 -13.99)" fill="#fff"/>
    <path id="패스_437" data-name="패스 437" d="M41.78,28.349c-.06.121-.121.244-.186.366.065-.122.127-.244.186-.366" transform="translate(-19.256 -13.12)" fill="#fff"/>
    <path id="패스_438" data-name="패스 438" d="M42.679,26.36q-.067.176-.14.354.073-.177.14-.354" transform="translate(-19.694 -12.199)" fill="#fff"/>
    <path id="패스_439" data-name="패스 439" d="M39.957,31.406c-.08.12-.163.24-.249.36.086-.121.169-.241.249-.36" transform="translate(-18.383 -14.534)" fill="#fff"/>
    <path id="패스_440" data-name="패스 440" d="M42.258,27.265q-.1.23-.208.463.11-.232.208-.463" transform="translate(-19.467 -12.618)" fill="#fff"/>
    <path id="패스_441" data-name="패스 441" d="M40.315,21.911q.481-.256.948-.5-.467.241-.948.5" transform="translate(-18.664 -9.91)" fill="#fff"/>
    <path id="패스_442" data-name="패스 442" d="M39.2,32.355c-.117.161-.238.322-.365.486.127-.163.248-.324.365-.486" transform="translate(-17.978 -14.974)" fill="#fff"/>
    <path id="패스_443" data-name="패스 443" d="M37.478,34.522q-.18.21-.371.422.191-.212.371-.422" transform="translate(-17.179 -15.977)" fill="#fff"/>
    <path id="패스_444" data-name="패스 444" d="M36.538,35.483c-.154.169-.315.339-.48.51.165-.171.326-.341.48-.51" transform="translate(-16.693 -16.421)" fill="#fff"/>
    <path id="패스_445" data-name="패스 445" d="M38.376,33.484q-.155.2-.318.391.164-.2.318-.391" transform="translate(-17.619 -15.496)" fill="#fff"/>
    <path id="패스_446" data-name="패스 446" d="M41.239,29.324c-.074.135-.15.27-.23.405.08-.135.156-.27.23-.405" transform="translate(-18.986 -13.571)" fill="#fff"/>
    <path id="패스_447" data-name="패스 447" d="M44.052,20.4c-.011.153-.025.305-.042.458.017-.153.031-.306.042-.458" transform="translate(-20.375 -9.441)" fill="#fff"/>
    <path id="패스_448" data-name="패스 448" d="M43.939,21.493c-.014.121-.031.242-.049.364.018-.122.035-.243.049-.364" transform="translate(-20.319 -9.947)" fill="#fff"/>
    <path id="패스_449" data-name="패스 449" d="M43.053,25.234c-.048.153-.1.307-.156.461.055-.154.108-.308.156-.461" transform="translate(-19.86 -11.678)" fill="#fff"/>
    <path id="패스_450" data-name="패스 450" d="M42.308,20.881c.323-.166.643-.328.956-.482-.313.155-.633.316-.956.482" transform="translate(-19.587 -9.441)" fill="#fff"/>
    <path id="패스_451" data-name="패스 451" d="M43.331,24.361c-.038.142-.077.284-.121.427.044-.143.084-.285.121-.427" transform="translate(-20.004 -11.274)" fill="#fff"/>
    <path id="패스_452" data-name="패스 452" d="M43.588,23.423c-.026.121-.054.243-.085.365.031-.122.059-.243.085-.365" transform="translate(-20.14 -10.84)" fill="#fff"/>
    <path id="패스_453" data-name="패스 453" d="M43.788,22.374q-.037.228-.084.457.047-.229.084-.457" transform="translate(-20.233 -10.355)" fill="#fff"/>
    <path id="패스_454" data-name="패스 454" d="M66.577,36.221a12.314,12.314,0,0,1-3.5-1.72c-.295-.162-.6-.483-.948-.338-.427.18.075.631-.166.937-.86-.928-.749-2.105-.885-3.214-.112-.9-.433-1.107-1.28-.776a10.684,10.684,0,0,1-1.7.669c-1.6.329-3.382-.8-3.136-2.268.833,1.233,1.948,1.138,3.031.593a9.9,9.9,0,0,1,4.795-1.383c.6.018.76-.353.749-.924-.008-.425-.386-.8-.253-1.157.371-.983-.221-1.1-.926-1.184-.256-.031-.51-.075-.769-.114.53-1.757.481-2.183-.321-2.737-.089.376-.174.742-.262,1.108-.273,1.135-.746,1.437-1.821,1a7.211,7.211,0,0,0-3.491-.553,1.473,1.473,0,0,1-1.473-.853,2.689,2.689,0,0,1,.064-2.912,2.645,2.645,0,0,0-1.975,2.178,4.611,4.611,0,0,0,.475,2.935c-.461-.066-.828-.143-1.2-.165s-.895-.273-1.083.234a1.373,1.373,0,0,0,.35,1.524,2.345,2.345,0,0,0,1.1.477c.5.138,1.006-.113,1.587-.038a34.419,34.419,0,0,0-2.767,5.654h2.3V41.4a16.5,16.5,0,0,0,18.584-5.081,20.708,20.708,0,0,1-5.081-.1" transform="translate(-23.335 -9.436)" fill="#a50821"/>
    <path id="패스_455" data-name="패스 455" d="M60.71,30.086c.071-.376.41-.447.729-.468.223-.015.6.012.564.244-.061.459-.568.362-.865.5-.22-.009-.487.032-.429-.276" transform="translate(-28.102 -13.706)" fill="#fff"/>
    <path id="패스_456" data-name="패스 456" d="M85.436,52.623v.737H84.191v3.426h-.875V53.36H82.065v-.737Z" transform="translate(-37.993 -24.354)" fill="#fff"/>
    <path id="패스_457" data-name="패스 457" d="M89.278,56.786V52.623h.864v1.587h1.618V52.623h.864v4.163h-.864V54.928H90.142v1.858Z" transform="translate(-41.332 -24.353)" fill="#fff"/>
    <path id="패스_458" data-name="패스 458" d="M11.66,7.763c2.261,0,3.548,1.287,3.548,3.081a5.867,5.867,0,0,1-1.432,3.521c1.9-1.076,3.96-2.133,6.162-3.111q.479-.212.966-.42l.369-.155q.423-.176.852-.349l.369-.147q.6-.236,1.206-.463-.009-.272-.03-.538c0-.044-.009-.088-.013-.132-.012-.134-.025-.268-.042-.4-.005-.043-.013-.085-.019-.128-.019-.132-.039-.264-.063-.393-.007-.037-.015-.073-.022-.109-.026-.136-.055-.271-.086-.4-.006-.028-.015-.056-.021-.085-.035-.14-.072-.279-.113-.416l-.019-.064c-.044-.143-.09-.284-.14-.423l-.017-.048q-.078-.214-.165-.423l-.017-.04c-.027-.065-.059-.128-.088-.192C21.157,2.211,17.153,0,12.284,0,5.42,0,0,3.9,0,11.234H8.111A3.471,3.471,0,0,1,11.66,7.763" transform="translate(0 0)" fill="#fff"/>
    <path id="패스_459" data-name="패스 459" d="M27.457,36.725a8.484,8.484,0,0,1,.1-2.086H12.871l1.755-1.248a37.593,37.593,0,0,0,5.155-4.323l.055-.055c.165-.171.325-.342.48-.51l.083-.094q.191-.212.371-.422l.141-.167c.11-.131.215-.261.319-.391l.1-.121c.128-.163.248-.324.365-.486l.106-.149q.129-.181.249-.36l.1-.157c.1-.159.2-.317.3-.475l.047-.082c.081-.136.156-.271.23-.405l.084-.157q.1-.184.186-.366c.019-.039.04-.08.059-.119.074-.155.143-.309.208-.464.019-.044.036-.088.054-.132.049-.119.1-.236.14-.354.017-.048.035-.1.053-.143.055-.155.108-.308.156-.461,0-.014.008-.028.012-.042.044-.142.084-.285.121-.427.012-.046.024-.093.035-.139.031-.122.059-.243.085-.365.008-.036.016-.071.023-.107.032-.153.059-.3.084-.457.006-.037.011-.073.017-.109.018-.122.035-.243.049-.364,0-.043.01-.086.015-.129.017-.153.031-.306.042-.458-.313.155-.633.316-.956.482l-.122.062q-.467.241-.948.5l-.153.082q-.483.26-.981.536l-.132.074q-.517.288-1.046.595l-.016.009A100.346,100.346,0,0,0,1.016,37.061v5.38H27.931l-.183-2.2Z" transform="translate(-0.47 -9.441)" fill="#fff"/>
    <path id="패스_460" data-name="패스 460" d="M52.5,0A16.44,16.44,0,0,0,40.885,4.785a11.155,11.155,0,0,1,1.23,4.43,55.331,55.331,0,0,1,10.371-2.5,41.788,41.788,0,0,0-10.341,3.539A13.205,13.205,0,0,1,40,17.328a21.687,21.687,0,0,1-3.292,3.94,16.436,16.436,0,0,0,.975,2.485h6.752A34.35,34.35,0,0,1,47.2,18.1c-.581-.076-1.083.175-1.587.038a2.35,2.35,0,0,1-1.1-.477,1.373,1.373,0,0,1-.349-1.525c.188-.506.7-.255,1.083-.233s.737.1,1.2.165a4.611,4.611,0,0,1-.475-2.935,2.646,2.646,0,0,1,1.975-2.179,2.691,2.691,0,0,0-.064,2.912,1.474,1.474,0,0,0,1.473.852,7.223,7.223,0,0,1,3.491.553c1.075.441,1.549.14,1.821-.995.088-.366.173-.733.263-1.109.8.554.851.98.321,2.737.259.039.513.084.769.115.7.084,1.3.2.926,1.183-.133.353.245.733.253,1.157.011.571-.151.943-.75.924a9.9,9.9,0,0,0-4.794,1.383c-1.083.545-2.2.641-3.031-.593-.246,1.467,1.54,2.6,3.136,2.268a10.637,10.637,0,0,0,1.7-.668c.846-.331,1.168-.129,1.279.776.136,1.108.025,2.286.885,3.214.241-.305-.261-.757.166-.937.346-.146.654.176.948.338a12.322,12.322,0,0,0,3.5,1.721,20.708,20.708,0,0,0,5.081.1,16.462,16.462,0,0,0,2.843-5.2c.024-.131.092-.23.126-.389A16.507,16.507,0,0,0,52.5,0m4.714,7.37-1.156-.608L54.9,7.37l.221-1.288-.936-.912,1.293-.188.578-1.172.578,1.172,1.293.188-.936.912Z" transform="translate(-16.993 0)" fill="#fff"/>
  </g>
</svg>
