 <svg
      xmlns="http://www.w3.org/2000/svg"
      viewBox="0 0 61 54"
      width="43"
      height="38"
    >
      <path
        xmlns="http://www.w3.org/2000/svg"
        id="directions_car_24dp_FILL0_wght400_GRAD0_opsz24"
        d="M130.167-712.75v3.375a3.259,3.259,0,0,1-.974,2.4,3.286,3.286,0,0,1-2.415.97h-3.389a3.286,3.286,0,0,1-2.415-.97,3.259,3.259,0,0,1-.974-2.4v-27l7.117-20.25a4.785,4.785,0,0,1,1.822-2.447,4.949,4.949,0,0,1,2.923-.928h37.278a4.949,4.949,0,0,1,2.923.928,4.786,4.786,0,0,1,1.822,2.447L181-736.375v27a3.259,3.259,0,0,1-.974,2.4,3.286,3.286,0,0,1-2.415.97h-3.389a3.286,3.286,0,0,1-2.415-.97,3.259,3.259,0,0,1-.974-2.4v-3.375Zm-.678-30.375h42.022l-3.558-10.125H133.047Zm-2.711,6.75v0Zm8.472,13.5a4.912,4.912,0,0,0,3.6-1.477,4.872,4.872,0,0,0,1.483-3.586,4.872,4.872,0,0,0-1.483-3.586,4.912,4.912,0,0,0-3.6-1.476,4.912,4.912,0,0,0-3.6,1.476,4.872,4.872,0,0,0-1.483,3.586,4.872,4.872,0,0,0,1.483,3.586A4.912,4.912,0,0,0,135.25-722.875Zm30.5,0a4.913,4.913,0,0,0,3.6-1.477,4.872,4.872,0,0,0,1.483-3.586,4.872,4.872,0,0,0-1.483-3.586,4.912,4.912,0,0,0-3.6-1.476,4.912,4.912,0,0,0-3.6,1.476,4.873,4.873,0,0,0-1.483,3.586,4.872,4.872,0,0,0,1.483,3.586A4.913,4.913,0,0,0,165.75-722.875ZM126.778-719.5h47.444v-16.875H126.778Z"
        transform="translate(-120 760)"
        fill="#E54A5B"
      />
    </svg>