<svg xmlns="http://www.w3.org/2000/svg" xmlns:xlink="http://www.w3.org/1999/xlink" width="106.849" height="113.441" viewBox="0 0 106.849 113.441"><script xmlns=""/>
  <defs>
    <clipPath id="clip-path">
      <rect id="사각형_11950" data-name="사각형 11950" width="106.849" height="113.441" fill="none"/>
    </clipPath>
  </defs>
  <g id="그룹_34043" data-name="그룹 34043" transform="translate(0 0)">
    <g id="그룹_34042" data-name="그룹 34042" transform="translate(0 0)" clip-path="url(#clip-path)">
      <path id="패스_12282" data-name="패스 12282" d="M7.164,16.975A9.593,9.593,0,0,0,8.789,21.9c.15.232.277.777.785.378a2.59,2.59,0,0,0,.076-1.4c-.021-.219-.225-.307-.4-.405a4.836,4.836,0,0,1-1.11-.726,1.083,1.083,0,0,1-.294-1.257A.674.674,0,0,1,8.9,18.161c.484.278.553.249.772-.27a3.017,3.017,0,0,0,.13-1.837c-.174-.83.095-1.184.949-1.3a4.715,4.715,0,0,1,.739-.019,3.887,3.887,0,0,0,1.68-.328c.06-.026.122-.05.182-.074,1.1-.457,1.894-.563,2.566.959.114.261.182.608.55.689a3.593,3.593,0,0,0,.426-2.071,4.183,4.183,0,0,0-.272-1.292,1.044,1.044,0,0,0-1.379-.7,2.206,2.206,0,0,1-2.061-.228,2.68,2.68,0,0,0-3.092.312,3.928,3.928,0,0,0-1.7,2.027c-.034.132-.117.084-.188.063-.478-.132-.66.19-.787.542a7.424,7.424,0,0,0-.251,2.336" transform="translate(4.363 6.905)" fill="#00132b"/>
      <path id="패스_12283" data-name="패스 12283" d="M12.793,21.245a2.046,2.046,0,0,1-1.527-.423,6.075,6.075,0,0,1-1.9-1.865,1.015,1.015,0,0,0-.22-.19c-.13,1.543-.074,3.1-.322,4.636a4.6,4.6,0,0,1,2.027,1.508s.341.288.626.552c1.762,1.628,2.357,6.264,3.422,6.368.822.082,1.968-2.52,2.174-4.909a9.826,9.826,0,0,0-.483-3.945,3.24,3.24,0,0,1-2.109-1.3,2.451,2.451,0,0,1-.195-.367l-1.493-.061" transform="translate(5.374 11.429)" fill="#e6beaf"/>
      <path id="패스_12284" data-name="패스 12284" d="M8.591,16.928c.032-.021.1-.04.13-.085a.173.173,0,0,0-.087-.248,1.3,1.3,0,0,1-.449-.37c-.061-.077-.138-.164-.243-.1-.122.076-.1.2-.032.3a1.158,1.158,0,0,0,.681.5" transform="translate(4.783 9.806)" fill="#bf7b6c"/>
      <path id="패스_12285" data-name="패스 12285" d="M16.947,18.326a4.112,4.112,0,0,0,.286-2.4c-.042-.285-.19-.574-.565-.341-.172.108-.191.011-.228-.1-.053-.154-.095-.312-.142-.467a4.337,4.337,0,0,1-.6-1.07c-.475-.949-1.08-1.263-2.045-.872a8.469,8.469,0,0,1-3.017.594c-1.064.027-1.352.471-1.141,1.512a2.61,2.61,0,0,1-.339,2.172c-.581-.534-1.015-.6-1.4-.212a1.232,1.232,0,0,0,.088,1.73,3.107,3.107,0,0,0,1.08.674.693.693,0,0,1,.494.784c-.018.328-.008.656-.011.985a3.338,3.338,0,0,1,.582,1.01,5.246,5.246,0,0,0,3.075,2.584c.206.061.442.2.6-.092l0,0a1.757,1.757,0,0,0,1.464.05,2.1,2.1,0,0,0,.685-.555,2.954,2.954,0,0,0,1.178-2.166,10.469,10.469,0,0,0-.137-3.223.972.972,0,0,1,.092-.6" transform="translate(4.531 7.866)" fill="#fad8c9"/>
      <path id="패스_12286" data-name="패스 12286" d="M6.287,50.584a9.914,9.914,0,0,1-4.7-1.08,2.325,2.325,0,0,1-1.411-3.1,55.248,55.248,0,0,1,8.2-15.166,4,4,0,0,1,3.8-1.657c1.327.349,1.963,1.5,2.78,2.43,1.928,2.2,3.413,4.75,5.651,7.4.611-2.494,1.083-4.565.706-6.771a5.882,5.882,0,0,1,.225-3.871c2.262-3.532,4.489-7.088,6.8-10.584a4.411,4.411,0,0,0,.69-3.389,49.636,49.636,0,0,1-.949-6.938,6.992,6.992,0,0,1,3.96-1.438c.338.813.689,1.62,1.012,2.439a17.117,17.117,0,0,1-.494,14.151c-1.805,3.866-3.284,7.884-4.938,11.823a11.679,11.679,0,0,0-.777,7.059,22.649,22.649,0,0,1,.457,4.125,9.259,9.259,0,0,0,2.759,6.66c.645.644.7,1.17.135,1.823-.167.893-.912,1.208-1.595,1.567a8.2,8.2,0,0,1-4.3,1.094,30.081,30.081,0,0,0-10.771,1.432,5.859,5.859,0,0,1-3.181-.425l-1.564-.5a44.918,44.918,0,0,0,1.7-6.814.754.754,0,0,1,.587-.611c2.581-.325,5.154-1.191,7.762-.167,2.137.912,2.174.912,3.339.037.035-.718-.6-.782-1.031-1.036-.911-1.615-2.365-1.586-3.96-1.437a10.536,10.536,0,0,1-6.267-.84c-.528-1.408-.114-2.957-.753-4.56-.843,1.3-2.039,2.174-2.954,3.352.433.529,1.319.386,1.506,1.146-.126,1.274-.356,2.533-.467,3.791a3.1,3.1,0,0,1-1.968.061" transform="translate(0 3.909)" fill="#a42c2d"/>
      <path id="패스_12287" data-name="패스 12287" d="M9.722,21.13l5.6,7.2c.15-.026.3-.053.447-.08a27.855,27.855,0,0,0-.212-7.136l1.376-.8c-.074,2.919.792,5.821.064,8.763a8.842,8.842,0,0,1-1.028,2.758c-2.882-3.746-5.257-7.54-8.4-10.7l2.15,0" transform="translate(4.611 12.368)" fill="#a42c2d"/>
      <path id="패스_12288" data-name="패스 12288" d="M17.685,6.8l2.771-1.477c.93.24,1.091.946,1.068,1.762a9.69,9.69,0,0,1-3.96,1.438A1.272,1.272,0,0,1,17.685,6.8" transform="translate(10.526 3.242)" fill="#a42c2d"/>
      <path id="패스_12289" data-name="패스 12289" d="M41.4,41.426C37.149,39.08,32.548,37.77,27.987,36.3A9.3,9.3,0,0,1,21.1,38.452a21.886,21.886,0,0,0-9.7,1.532L8.14,39.97c.1.116.209.232.314.349h0A12.083,12.083,0,0,0,10.3,44.393c2.7,4.671,5.831,9.081,8.452,13.807.888,1.6.721,2.764-.721,3.9C14.589,64.8,11.15,67.5,7.815,70.326,6.439,71.493,4.586,72.169,3.8,73.985c-.438.954.142,1.524.784,2.071A2.626,2.626,0,0,0,6.814,76a91.464,91.464,0,0,0,15.551-8.3c3.006-2.1,5.281-4.573,4.6-8.645a27.523,27.523,0,0,0-1.207-4.877c-.994-2.735-2.006-5.464-3.041-8.273,2.154.191,4.187.253,6.177.576,2.65.431,5.387.32,7.96,1.26.719.262,1.352.494,1.323,1.432-.132,4.38.158,8.761-.24,13.145-.2,2.161-.541,4.4.248,6.552l.026-.011,0,.006.89.256c.01.027.018.055.029.08a.875.875,0,0,0,1.181.074c.7-.011.972-.346,1.194-1.046a81.724,81.724,0,0,0,3.829-18.6c.253-3.364-.518-6.32-3.923-8.2M21.038,60.951a2.264,2.264,0,0,1-.238.486c.087-.161.167-.323.238-.486" transform="translate(2.219 22.107)" fill="#eab279"/>
      <path id="패스_12290" data-name="패스 12290" d="M23.253,36.815c-.739-1.1-2.024-.957-3.094-1.9,1.471.135,2.616.24,4.236.386-1.381-1.075-2.816-.795-3.958-1.717,1.292-.267,2.393.19,3.887.19-1.987-1.508-4.079-.825-5.894-1.408.068-1.064,1.456-1.418,1.244-2.666a22.2,22.2,0,0,0-3.01,2.512c-1.065.83-10.927-.071-11.279.113-.727,1.16-1.307,2.343-.571,3.725.359.045,11.372.33,12.3.61,1.595.481,3.059,1.006,4.385,1.538-.36-1.1-1.376-1.155-1.763-1.966,1.226-.245,2.2.624,3.514.586" transform="translate(2.724 18.085)" fill="#e6beaf"/>
      <path id="패스_12291" data-name="패스 12291" d="M20.247,9.913a4.341,4.341,0,0,1,2.779-1.146c-.772-1.252-1.559-2.647-2.325-4.188C19.959,3.088,19.34,1.662,18.819.331c-.557,1.017.1,1.794-.224,2.632C17.578,2.237,17.541.93,16.616,0c-.294,1.29.689,2.132.734,3.557L14.73.206c.161,1.741,1.348,2.6,1.458,4.059-1.08-.758-1.5-1.873-2.523-2.962.261,2.481,2.191,3.538,3.009,5.258-.821.679-2.031-.09-2.795.92a22.2,22.2,0,0,0,3.891.473,2.746,2.746,0,0,1,2.478,1.958" transform="translate(8.322 0)" fill="#e6beaf"/>
      <path id="패스_12292" data-name="패스 12292" d="M7.976,62.058a5.039,5.039,0,0,1-3.152-3.115A4.425,4.425,0,0,0,3.68,60.036a1.054,1.054,0,0,0,.161,1.775,3.738,3.738,0,0,1,1.266,1.681A15.153,15.153,0,0,0,7.7,67.068c.349.341.666,1.017,1.284.629.512-.32.195-.895.079-1.358-.357-1.429-.722-2.854-1.086-4.282" transform="translate(1.992 35.895)" fill="#541a1e"/>
      <path id="패스_12293" data-name="패스 12293" d="M24.629,54.974c1.426.8,2.814,1.714,4.571,1.511.832,1.35,1.672,2.7,2.494,4.051.217.359.537.771.2,1.179-.433.518-.883.06-1.261-.135a16.327,16.327,0,0,1-3.495-2.615,6.369,6.369,0,0,0-2.212-1.738c-1.215-.422-.7-1.426-.294-2.254" transform="translate(14.717 33.478)" fill="#541a1e"/>
      <path id="패스_12294" data-name="패스 12294" d="M41.7,31.213c-1.027.322-1.641.1-2.029-.837-1.411-3.392-5.141-11.406-5.208-11.591l.031,0a2.013,2.013,0,0,1,.331-2.294,16.413,16.413,0,0,0,1.836-2.217c-.917-.153-1.173.867-1.955.92-.433-1.331.063-2.869-1.051-4.325a14.366,14.366,0,0,1,.151,2.854c-.681-.835-.479-1.891-1.273-2.9.113,1.189.193,2.029.3,3.11-.7-.784-.6-1.728-1.406-2.267-.024.964.616,1.678.441,2.579-.6-.283-.639-1.028-1.45-1.289.4.972.785,2.045,1.142,3.215.37,1.208.655,2.351.875,3.408l.018-.016c.349,5.121,2.275,9.8,4.331,14.409,1.152,2.584,1.784,2.685,4.6,2.457A92.582,92.582,0,0,0,50.592,34.8c.224-2.143-.034-4.117-1.958-5.5-2.314.626-4.645,1.191-6.932,1.905" transform="translate(18.524 6.589)" fill="#6a462e"/>
      <path id="패스_12295" data-name="패스 12295" d="M45.212,16.173a1.639,1.639,0,0,0,.354-.829A3.179,3.179,0,0,1,49.4,12.971a24.5,24.5,0,0,0,3.332.2c1.973-.021,3.01.793,3.29,2.592a4.563,4.563,0,0,0,.951,2.27,2.605,2.605,0,0,1,.573,2.6.513.513,0,0,1-.018.151,3.2,3.2,0,0,0,.188,2.69,7.151,7.151,0,0,1,.422,1.463,2.441,2.441,0,0,1-2.851,2.97c-.771-.1-1.541-.211-2.317-.282a.708.708,0,0,1-.385-.114,2.693,2.693,0,0,1-.275-1.947c.066-.919.071-1.844.219-2.756a4.632,4.632,0,0,1,.439-1.046c.375.035.785.135.856-.434a3.549,3.549,0,0,0,.592-.817.667.667,0,0,0-.7-.964c-.36.043-.455-.122-.488-.414-.006-.068-.011.013,0-.051.175-.99-.349-1.49-1.178-1.911a3.683,3.683,0,0,1-1.939-1.994c-.056-.159-.143-.171-.257-.051-.071.072-.142.145-.211.219a5.343,5.343,0,0,1-1.78,1.339c-.037.077-1.377,1.094-1.784.975-.319-.092-.5-.037-.584.33a8.959,8.959,0,0,0,.573,6.05c.1.2.185.4.283.6a2.648,2.648,0,0,0,1.554,1.448c.158.051.338.072.431.243a1.073,1.073,0,0,1-.093,1c-.417.22-.837.021-1.249-.011a9.435,9.435,0,0,1-2.93-.594,2.175,2.175,0,0,1-1.426-2.378,3.485,3.485,0,0,1,.209-.941,2.443,2.443,0,0,0-.032-1.982,2.581,2.581,0,0,1,.727-3.21,7.056,7.056,0,0,0,1.667-2.032" transform="translate(25.905 7.873)" fill="#233086"/>
      <path id="패스_12296" data-name="패스 12296" d="M47.3,25.59a2.439,2.439,0,0,1-1.986-1.469,9.174,9.174,0,0,1-1.179-4.866A16.032,16.032,0,0,1,44.453,17c.047-.235.179-.286.41-.225.439.119,3.453-1.8,4.1-2.648.111-.146.212-.1.246.051.265,1.229,1.249,1.786,2.208,2.367a1.036,1.036,0,0,0,.225.117c.676.214.793.735.755,1.348-.01.153,0,.306,0,.459.006.225,0,.433.339.241a.465.465,0,0,1,.631.163c.179.24.4.473.286.819a1.844,1.844,0,0,1-.74,1c-.444-.193-.69.008-.837.415-.18.285-.14.666-.394.919a4.1,4.1,0,0,1-1.5,2.311,4.5,4.5,0,0,1-2.309,1.294c-.2.039-.394.122-.576-.042" transform="translate(26.869 8.55)" fill="#6a462e"/>
      <path id="패스_12297" data-name="패스 12297" d="M47.57,22.567a5.111,5.111,0,0,0,3.635-2.29A3.61,3.61,0,0,0,51.955,19c-.069,1.255-.142,2.51-.208,3.765a2.074,2.074,0,0,0,.214,1.023.967.967,0,0,0,.364.521c.484.32,1.062-.109,1.617.185a1.171,1.171,0,0,1,.513.616c.608.079.769.306.821.41.265.533-.425,1.6-1.232,2.158-.286.2-.43.222-.513.41-.249.566.676,1.15.822,1.85.309,1.475-2.656,4.428-5.958,4.211-.267-.018-3.025-.243-4.211-2.465-1.123-2.1-.375-5.133,2.066-7.01a1.716,1.716,0,0,0,.759-.38,2.045,2.045,0,0,0,.562-1.733" transform="translate(26.596 11.573)" fill="#66422c"/>
      <path id="패스_12298" data-name="패스 12298" d="M48.382,18.44a1.873,1.873,0,1,0,1.873-1.873,1.873,1.873,0,0,0-1.873,1.873" transform="translate(29.464 10.089)" fill="#6a462e"/>
      <path id="패스_12299" data-name="패스 12299" d="M65.913,52.131c-.885-.351-6.954-12.381-7.282-12.746C57,37.57,65.474,27.2,65.749,26.264a14.472,14.472,0,0,1-4.475-1.652,18.756,18.756,0,0,0-6.64-2.248c-1.789.254-2.158,1.9-2.962,3.089-.848,1.252-1.2,2.809-2.37,4.153-.462-2.537.068-4.867-.315-7.15a13.307,13.307,0,0,0-7.862.161c1.023.758,4.08,11.088,4.116,11.969.18,4.33-.97,8.547-1.1,12.84-.146,4.87-.386,9.73-.8,14.584-.331,3.908-.311,3.91,3.429,3.392a21,21,0,0,1,4.763,1.331c.708.275,1.479.687,2.272.154a6.385,6.385,0,0,0,5.459-3.477,22.576,22.576,0,0,1,5.142-5.58c.486-1.126,1.715-1.567,2.338-2.6.835-1.393.864-2.422-.833-3.094" transform="translate(25.045 13.361)" fill="#f3ac31"/>
      <path id="패스_12300" data-name="패스 12300" d="M44.635,49.074A2.462,2.462,0,0,1,46.941,49c1.569.542,3.154,1.043,4.73,1.561a14.24,14.24,0,0,0,1.9,7.308c2.412,4.634,3.352,9.791,4.578,14.827a3.573,3.573,0,0,0,1.87,2.618c.265,1.768.552,3.538-.777,5.062-3.881-7.194-8.436-14.03-11.39-21.718a81.18,81.18,0,0,1-3.213-9.582" transform="translate(27.182 29.687)" fill="#6a462e"/>
      <path id="패스_12301" data-name="패스 12301" d="M52.4,55.16a8.566,8.566,0,0,1,5.142-5.58,1.169,1.169,0,0,0,.914.729c1.918-2.658,3.889-5.348,5.812-8.074.991-1.406,2.447-2.523,2.792-4.347C68,36.6,68.957,35.356,70.8,35.5c-2.719,6.911-5.01,14.008-8.61,20.536-2.029,3.678-3.59,3.894-7.026,1.372-.957-.7-1.846-1.493-2.766-2.245" transform="translate(31.911 21.61)" fill="#6a462e"/>
      <path id="패스_12302" data-name="패스 12302" d="M65.141,32.218a15.184,15.184,0,0,0-3.921-6.486l-4.573,2.64c.4,1.48,1.921,1.834,2.825,2.814,1.471,1.591,1.495,2.166.029,3.749-1.091,1.181-9.276,8.008-10,7.831a12.829,12.829,0,0,0-2.175-.611c.183.706,1,.566,1.282,1.109-.816.735-2.077.87-2.766,2.132a11.326,11.326,0,0,1,2-1.017c-.383.753-1.2.946-1.675,1.836.816-.459,1.393-.785,2.137-1.2-.339.748-1.049.978-1.179,1.73.7-.29,1.007-.977,1.71-1.138-.013.518-.534.787-.463,1.45a18.923,18.923,0,0,1,2.351-1.606c.8-.465,5.463-3.744,7.08-4.52A35.883,35.883,0,0,0,64.1,35.957a3.656,3.656,0,0,0,1.038-3.739" transform="translate(27.916 15.67)" fill="#6a462e"/>
      <path id="패스_12303" data-name="패스 12303" d="M52.509,68.573a5.248,5.248,0,0,0,1.551-4.351,4.582,4.582,0,0,1,1.569.508,1.1,1.1,0,0,1,.652,1.739,3.889,3.889,0,0,0-.428,2.153,15.831,15.831,0,0,1-.817,4.531c-.174.478-.166,1.257-.92,1.171-.626-.071-.589-.751-.69-1.241-.311-1.5-.611-3.007-.916-4.512" transform="translate(31.978 39.11)" fill="#541a1e"/>
      <path id="패스_12304" data-name="패스 12304" d="M61.037,39.275c1.577-.436,3.144-.993,4.8-.377,1.133-1.112,2.27-2.219,3.393-3.342.3-.3.706-.619.473-1.1-.3-.608-.845-.27-1.257-.171a16.308,16.308,0,0,0-4.022,1.706,6.366,6.366,0,0,1-2.566,1.16c-1.281.119-1.017,1.22-.824,2.121" transform="translate(37.073 20.769)" fill="#541a1e"/>
    </g>
  </g>
</svg>