<svg xmlns="http://www.w3.org/2000/svg" xmlns:xlink="http://www.w3.org/1999/xlink" width="69.336" height="50.478" viewBox="0 0 69.336 50.478"><script xmlns=""/>
  <defs>
    <clipPath id="clip-path">
      <rect id="사각형_11952" data-name="사각형 11952" width="26.195" height="41.309" fill="#ffe397"/>
    </clipPath>
    <clipPath id="clip-path-2">
      <rect id="사각형_11953" data-name="사각형 11953" width="25.523" height="29.824" fill="#ffe397"/>
    </clipPath>
  </defs>
  <g id="그룹_34565" data-name="그룹 34565" transform="translate(-562 -2162.026)">
    <g id="그룹_34051" data-name="그룹 34051" transform="translate(562 2162.025)">
      <g id="그룹_34051-2" data-name="그룹 34051" transform="translate(0 0)" clip-path="url(#clip-path)">
        <path id="패스_12317" data-name="패스 12317" d="M22.4,19.708c.438-.962.918-1.905,1.3-2.887A8.307,8.307,0,0,0,16.578,5.516c-1.619-.149-1.162.968-1.169,1.7-.043,4-.019,8.006-.019,12.01,0,5.177.035,10.353-.014,15.528-.033,3.443-2.3,5.82-5.958,6.417C5.35,41.836,1.373,40.025.3,36.96c-.815-2.347.079-4.229,1.878-5.706a7.644,7.644,0,0,1,6.6-1.712c2.422.546,2.469-.525,2.451-2.358-.07-8.105-.041-16.212-.033-24.319,0-3.305.052-3.336,3.263-2.159a28.923,28.923,0,0,1,6.79,3.39C27.36,8.4,27.881,14.5,22.4,19.708" transform="translate(0 0)" fill="#ffe397"/>
      </g>
    </g>
    <g id="그룹_34055" data-name="그룹 34055" transform="translate(605.813 2182.68)">
      <g id="그룹_34054" data-name="그룹 34054" transform="translate(0 0)" clip-path="url(#clip-path-2)">
        <path id="패스_12318" data-name="패스 12318" d="M25.512,12.13c0,3.211.009,6.421,0,9.634a4.034,4.034,0,0,1-3.088,4.264c-2.151.6-4.266.535-5.969-1.2a2.9,2.9,0,0,1-.865-3.239c.608-1.618,1.943-2.82,3.467-2.638,3.833.457,3.793-1.665,3.727-4.44-.139-5.986-.035-5.988-5.844-4.883-6.916,1.312-6.916,1.312-6.914,8.3,0,2.5-.038,5,.007,7.493a3.9,3.9,0,0,1-3.244,4.111c-2.3.608-4.584.36-6.12-1.727-1.783-2.426.17-5.649,3.9-5.632,2.775.012,2.73-1.18,2.7-3.121-.071-4.4.078-8.805-.071-13.2-.066-1.96.681-2.707,2.5-3.032C14.141,2.027,18.586,1.193,22.98.162,24.951-.3,25.564.2,25.519,2.14,25.444,5.469,25.5,8.8,25.5,12.13Z" transform="translate(-0.001 0.001)" fill="#ffe397"/>
      </g>
    </g>
  </g>
</svg>