<svg xmlns="http://www.w3.org/2000/svg" xmlns:xlink="http://www.w3.org/1999/xlink" id="그룹_34037" data-name="그룹 34037" width="127.588" height="82.437" viewBox="0 0 127.588 82.437"><script xmlns=""/>
  <defs>
    <clipPath id="clip-path">
      <rect id="사각형_11947" data-name="사각형 11947" width="127.588" height="82.437" fill="none"/>
    </clipPath>
    <clipPath id="clip-path-3">
      <rect id="사각형_11944" data-name="사각형 11944" width="75.607" height="12.151" fill="none"/>
    </clipPath>
    <clipPath id="clip-path-4">
      <rect id="사각형_11945" data-name="사각형 11945" width="60.109" height="10.178" fill="none"/>
    </clipPath>
  </defs>
  <g id="그룹_34036" data-name="그룹 34036" clip-path="url(#clip-path)">
    <g id="그룹_34035" data-name="그룹 34035" transform="translate(0 0)">
      <g id="그룹_34034" data-name="그룹 34034" clip-path="url(#clip-path)">
        <g id="그룹_34030" data-name="그룹 34030" transform="translate(0 70.286)" opacity="0.13">
          <g id="그룹_34029" data-name="그룹 34029">
            <g id="그룹_34028" data-name="그룹 34028" clip-path="url(#clip-path-3)">
              <path id="패스_12166" data-name="패스 12166" d="M20.168,77.119A128.876,128.876,0,0,0,6.585,78.346c-2.617.393-5.73,1.277-6.487,3.8-.694,2.306,2.48,3.621,4.559,4.2A73.053,73.053,0,0,0,20.873,88.5a234.594,234.594,0,0,0,32.816-.809,78.552,78.552,0,0,0,17.472-3.229,10.106,10.106,0,0,0,3.118-1.5,2.969,2.969,0,0,0,1.293-2.715c-.525-2.761-6.457-2.781-8.822-2.962a301.12,301.12,0,0,0-30.418-.552c-5.425.132-10.794.157-16.164.392" transform="translate(0 -76.587)" fill="#353a4d"/>
            </g>
          </g>
        </g>
        <path id="패스_12167" data-name="패스 12167" d="M24.552,38.436l.567-.132a7.469,7.469,0,0,0,2.337-.853,6.78,6.78,0,0,0,1.6-1.937c1.074-1.578,2.145-3.162,3.329-4.66,1.327-1.681,3.534-4.314,3.61-6.539.03-.9-.133-1.8-.1-2.694.006-.2.094-.462.292-.441a.341.341,0,0,1,.183.1c.729.684.611,1.843.815,2.822a.324.324,0,0,0,.1.2c.132.1.306-.032.45-.112a.978.978,0,0,1,1.054.155,2.392,2.392,0,0,1,.629.927c.919,2.069.224,3.382-1.39,4.747-1.413,1.195-1.406,2.607-2.27,4.119q-1.557,2.723-3.353,5.3c-1.054,1.511-1.807,3.064-3.3,4.231a19.079,19.079,0,0,1-2.922,1.762,51.205,51.205,0,0,1-4.956,2.373c-1.4.551-2.84.977-4.283,1.4-2.3.67-4.758,1.352-7.169.894a2.03,2.03,0,0,1-1.825-1.527c-.684-2.222.494-4.179,2.313-5.4a15.8,15.8,0,0,1,3.712-1.678,109.96,109.96,0,0,1,10.591-3.059" transform="translate(-0.637 -1.742)" fill="#f0bf9c"/>
        <path id="패스_12168" data-name="패스 12168" d="M20.086,46.765c-.621-1.775-1.525-3.573-1.977-5.409a27.871,27.871,0,0,0-4.733,1,7.373,7.373,0,0,0-2.512,1.181,4.961,4.961,0,0,0-1.711,4.078,9.188,9.188,0,0,0,.539,2.028,3.764,3.764,0,0,0,1.266,1.991,5.289,5.289,0,0,0,3.664.71,22,22,0,0,0,6.72-1.637,5.889,5.889,0,0,0-.31-1.307c-.318-.878-.637-1.756-.946-2.638" transform="translate(-0.753 -3.402)" fill="#d88119"/>
        <path id="패스_12169" data-name="패스 12169" d="M55.69,72.835c.064-.068.13-.133.2-.2,2.7-2.511,5.239-1.9,8.515-1.387,2.074.325,4.68.373,6.634,1.193.4.17.407,2.423.285,2.79-.385,1.152-1.807,1.143-2.872,1.339a69.362,69.362,0,0,1-9.523.853,4.834,4.834,0,0,1-1.4-.076A4.834,4.834,0,0,1,55.7,76.23a2.858,2.858,0,0,1-.754-.829,2.356,2.356,0,0,1,.748-2.566" transform="translate(-4.507 -5.824)" fill="#f0bf9c"/>
        <path id="패스_12170" data-name="패스 12170" d="M57.181,70.278c-.879-.552-3.006-.468-3.853-.574-3.293-.412-6.6-.7-9.912-.9-5.121-.3-10.25-.384-15.379-.356q-2.276.012-4.549.05c-5.729.091-11.8.842-14.97,6.36a4.882,4.882,0,0,0-.092,5.124,5.607,5.607,0,0,0,2.712,1.857,16.945,16.945,0,0,0,9.282.423A64.01,64.01,0,0,0,28.24,79.71c2.116-.724,4.665-.746,6.9-.962a90.955,90.955,0,0,1,10.686-.9c3.74.088,7.459.564,11.2.617a42.544,42.544,0,0,0,.151-8.188" transform="translate(-0.637 -5.631)" fill="#2789ba"/>
        <path id="패스_12171" data-name="패스 12171" d="M66.782,76.554s2.655-1.777,2.726-3.235A9.938,9.938,0,0,0,69.07,70.9c1.582-.464,4.081-.934,5.767-2.362a8,8,0,0,1,2.494-1.7.96.96,0,0,1,.593-.039,1,1,0,0,1,.5.426,2.207,2.207,0,0,1,.271,1.884,4.177,4.177,0,0,1-.717,1.192,81.065,81.065,0,0,1-7.206,8.663.669.669,0,0,1-1.008.173,8.034,8.034,0,0,1-2.98-2.586" transform="translate(-5.494 -5.493)" fill="#13285e"/>
        <path id="패스_12172" data-name="패스 12172" d="M11.848,32.773c0,.014.143,1.413-6.635,13.08,1.714,1.064,2.271,2.431,4.178,3.089a12.39,12.39,0,0,0,4.671.725c.868-.047,1.122-.106,1.333-.981a8.483,8.483,0,0,0,.11-2.1,22.875,22.875,0,0,1,.63-5.623,48.515,48.515,0,0,1,1.923-5.179c.227-.63.143-.545-.519-.768-.418-.14-.834-.28-1.249-.429q-1.038-.37-2.058-.79a11.9,11.9,0,0,1-2.386-1.028" transform="translate(-0.429 -2.696)" fill="#f0bf9c"/>
        <path id="패스_12173" data-name="패스 12173" d="M14.443,38.525c-1.433.071-.857,1.466-2.052.672-.275-.183-1.835-1.538-1.735-1.853.563-1.783-.411-5.638,0-6.036a5.15,5.15,0,0,1,2.476-1.262c.849-.184,1.5-.978,2.345-1.066a2.213,2.213,0,0,1,2.013.9,7.865,7.865,0,0,1,.6,1.284c.456,1,1.268,1.85,1.475,2.929a4.006,4.006,0,0,1,.023,1.166,4.421,4.421,0,0,1-1.018,2.5,4.831,4.831,0,0,1-2.494.932c-.552.117-1.023-.331-1.579-.232a.352.352,0,0,0-.2.085c-.051.055.092-.053.159-.019" transform="translate(-0.868 -2.383)" fill="#f0bf9c"/>
        <path id="패스_12174" data-name="패스 12174" d="M17.709,30.858a11.578,11.578,0,0,0,.24-3.187,4,4,0,0,0-1.108-2.6c-.811-.571-2.256-.129-3.07.206A9.3,9.3,0,0,0,9.079,29.6a4.125,4.125,0,0,0-.429,1.18A4.482,4.482,0,0,0,9.712,34.1a7.49,7.49,0,0,1,.965,1.073,4.1,4.1,0,0,0,.841,1.242,2.6,2.6,0,0,0,3.117-.315,6.489,6.489,0,0,1,.936-.763.941.941,0,0,1,1.12.081,4.105,4.105,0,0,1,.272.431.428.428,0,0,0,.429.212.448.448,0,0,0,.268-.365,2.414,2.414,0,0,0-.073-.989,5.309,5.309,0,0,1-.212-1.535c.055-.766.2-1.537.334-2.309" transform="translate(-0.709 -2.04)" fill="#13285e"/>
        <path id="패스_12175" data-name="패스 12175" d="M20.847,36.577a8.009,8.009,0,0,0-.5-2.09c-.087-.219-.232-.584-.474-.651a3.626,3.626,0,0,0-.061.65c-.037.525-.453.883-.911.491a2.466,2.466,0,0,1-.6-1.163c-.172-.582-.349-1.865-.961-2.164-.82-.4-1.273.585-1.188,1.248a22.762,22.762,0,0,0,.808,2.717,11.027,11.027,0,0,1,.291,1.639c.028.289.038.578.052.868a2.194,2.194,0,0,0,.022.662.477.477,0,0,0,.319.2,3.931,3.931,0,0,0,1.864.185c1.207-.242,1.453-1.416,1.345-2.6" transform="translate(-1.327 -2.596)" fill="#13285e"/>
        <path id="패스_12176" data-name="패스 12176" d="M.045,60.5a34.992,34.992,0,0,1,1.244-9.271c.907-3,2.509-6.977,5.338-9.586.683-.63,1.406-.961,3.2-.714a16.608,16.608,0,0,1,6.342,2.649,2.956,2.956,0,0,1,1.247,2.829c-.233,7.023-3.724,11.242-1.8,19.582.113.489-.123.433-.63.747a30.173,30.173,0,0,1-5.866,3.261C7.4,70.567,6.644,72.033,6,73.7a26.366,26.366,0,0,1-1.745,4.247.992.992,0,0,1-.265.321c-.342.238-.817.006-1.114-.285a5.769,5.769,0,0,1-1.314-2.7A44.961,44.961,0,0,1,0,63.058c.009-.853.019-1.707.042-2.56" transform="translate(0 -3.36)" fill="#eb9928"/>
        <path id="패스_12177" data-name="패스 12177" d="M43.559,73.053c.559-.5,1.829-1.172,2.572-.894a3.227,3.227,0,0,1,.978.677L51.318,76.6a20.862,20.862,0,0,1,3.147,3.256c.555.772,1.05,2.041.307,2.88-.673.759-2.092.339-2.945.449-1.232.159-2.67.107-3.461-.851a8.515,8.515,0,0,1-.77-1.429c-1.144-2.109-4.6-2.862-5.054-5.329a2.844,2.844,0,0,1,1.016-2.525" transform="translate(-3.497 -5.931)" fill="#f0bf9c"/>
        <path id="패스_12178" data-name="패스 12178" d="M3.462,74.89c.152-.163.311-.322.471-.479,3.425-3.39,7.149-6.465,10.865-9.534l5.818-4.8c1.058-.874,2.116-1.749,3.212-2.576.827-.624,2.077-1.009,2.707-1.612a1.316,1.316,0,0,1,1.191-.269,3.044,3.044,0,0,1,1.121.586,9.554,9.554,0,0,1,1.913,1.905,3.993,3.993,0,0,1,.808,1.62,4.261,4.261,0,0,1-.174,1.911c-.685,2.5-2.246,3.986-3.621,6.084q-3.5,5.337-6.8,10.8c-1.182,1.956-2.205,3.632-4.293,4.66a13.046,13.046,0,0,1-7.051,1.022c-2.7-.34-5.31-1.584-6.522-4.026-.665-1.343-1.241-2.808-.445-4.235a5.416,5.416,0,0,1,.8-1.055" transform="translate(-0.187 -4.572)" fill="#46a4d4"/>
        <path id="패스_12179" data-name="패스 12179" d="M42.665,77.118q.931-1.01,1.8-2.076c1.176-1.431,2.307-2.9,3.463-4.343a3.6,3.6,0,0,0-.474-.733c-1.921-2.458-10.543-11.4-13.093-13a5.941,5.941,0,0,0-3.388-1.109,5.75,5.75,0,0,0-3.74,2.164,30.546,30.546,0,0,1-3.1,3.228c-.407.341-1.094.835-.914,1.461.244.851,1.263.21,1.979.443a2.164,2.164,0,0,1,.569.289c.875.613,1.714,1.284,2.549,1.949,1.641,1.307,3.238,2.668,4.835,4.028l4.671,3.98,2.337,1.991c1.018.867,1.661,1.833,2.506,1.724" transform="translate(-1.908 -4.595)" fill="#46a4d4"/>
        <path id="패스_12180" data-name="패스 12180" d="M48.074,81.505s3.3.865,4.551,0a9.99,9.99,0,0,0,1.686-1.847c1.478.889,3.6,2.46,5.94,2.82a9.272,9.272,0,0,1,3.127.795.987.987,0,0,1,.442.418.9.9,0,0,1-.006.639,2.241,2.241,0,0,1-1.363,1.387,4.888,4.888,0,0,1-1.478.215A96.11,96.11,0,0,1,48.853,86a1,1,0,0,1-.675-.227.814.814,0,0,1-.165-.417,7.129,7.129,0,0,1,.062-3.851" transform="translate(-3.931 -6.554)" fill="#13285e"/>
        <path id="패스_12181" data-name="패스 12181" d="M31.314,55.081a4.9,4.9,0,0,0-.847-2.286,5.082,5.082,0,0,0-1.425-1.018c-1.842-.973-3.852-1.6-5.7-2.561-2.492-1.3-4.656-3.2-7.112-4.541-2,.959-3.767,3.294-4.866,4.946A20.808,20.808,0,0,0,9.5,53.161a16.155,16.155,0,0,0,2.451,1.1c1.8.708,3.655,1.255,5.471,1.919a51.73,51.73,0,0,0,10.118,2.7c1.6.184,2.945.116,3.787-1.378a3.407,3.407,0,0,0-.014-2.421" transform="translate(-0.782 -3.675)" fill="#f0bf9c"/>
        <path id="패스_12182" data-name="패스 12182" d="M17.541,56.5c.442-1.322.975-2.617,1.441-3.946.673-1.916,1.063-3.914,1.8-5.8A42.91,42.91,0,0,0,16.661,43.7a10.176,10.176,0,0,0-3.919-2.014A5.436,5.436,0,0,0,7.17,44.013,5.618,5.618,0,0,0,6,48.514,6.78,6.78,0,0,0,7.972,52.48c1.768,1.59,6.919,3.05,9.152,3.867l.417.149" transform="translate(-0.485 -3.423)" fill="#eb9928"/>
        <path id="패스_12183" data-name="패스 12183" d="M18.275,32.284c-.058-.148-.139-.251-.323-.111-.236.18-.069.627-.079.865A1.423,1.423,0,0,0,18,33.59a1.875,1.875,0,0,0,.183.391c.331.494.508.178.472-.269a5.207,5.207,0,0,0-.314-1.233c-.021-.063-.041-.133-.065-.2" transform="translate(-1.466 -2.641)" fill="#f0bf9c"/>
        <g id="그룹_34033" data-name="그룹 34033" transform="translate(56.847 52.439)" opacity="0.13">
          <g id="그룹_34032" data-name="그룹 34032">
            <g id="그룹_34031" data-name="그룹 34031" clip-path="url(#clip-path-4)">
              <path id="패스_12184" data-name="패스 12184" d="M77.986,57.146a96.755,96.755,0,0,0-10.8.618c-2.082.25-4.558.895-5.164,2.977-.555,1.906,1.965,3.1,3.618,3.646a56.344,56.344,0,0,0,12.889,2.284,177.36,177.36,0,0,0,26.089.308,58.7,58.7,0,0,0,13.9-2.173,7.545,7.545,0,0,0,2.481-1.161,2.437,2.437,0,0,0,1.032-2.228c-.413-2.322-5.128-2.516-7.009-2.739A228.541,228.541,0,0,0,90.836,57.3c-4.312-.052-8.581-.193-12.85-.158" transform="translate(-61.943 -57.14)" fill="#353a4d"/>
            </g>
          </g>
        </g>
        <path id="패스_12185" data-name="패스 12185" d="M114.543,50.265a2.772,2.772,0,0,0,.82-2.861c-.487-1.125-1.911-1.446-3.133-1.543a48.011,48.011,0,0,0-10.914.646c-5.075.763-10.017,2.018-15.164,1.046-4.854-.918-9.563-3.135-14.6-2.8-3.535.232-6.568,6.508-2.418,8.166,3.68,1.47,7.425,2.822,11.188,4.064a26.633,26.633,0,0,0,4.393,1.151,25.14,25.14,0,0,0,6.566-.1q4.193-.485,8.325-1.372c1.377-.3,2.739-.658,4.111-.967a37.307,37.307,0,0,0,5.348-1.861,17.215,17.215,0,0,0,4.77-2.873l.073-.065a1.671,1.671,0,0,0,.63-.628" transform="translate(-5.523 -3.679)" fill="#e34b58"/>
        <path id="패스_12186" data-name="패스 12186" d="M111.518,36.807c0,.01,0,.02,0,.03.2,1.471.455,6.9-2.127,6.627a2.077,2.077,0,0,1-1.347-.941,9.955,9.955,0,0,1-1.137-2.164,73.38,73.38,0,0,1-2.226-7.408c-.686-2.321-2.265-4.516-2.141-7.024a2.314,2.314,0,0,1,.808-1.8,2.575,2.575,0,0,1,2.886.385c2.194,1.566,3.031,4.345,3.834,6.789a31.541,31.541,0,0,1,1.445,5.5" transform="translate(-8.436 -1.96)" fill="#f0bf9c"/>
        <path id="패스_12187" data-name="패스 12187" d="M105.553,23.059a16.844,16.844,0,0,0-2.812-3.474c-2.01-1.873-4.569-1.391-7.025-.8a14.075,14.075,0,0,1-2.861.473,10.823,10.823,0,0,1-3.032-.383c-.888-.236-1.705-.7-2.627-.864a3.466,3.466,0,0,0-2.5.412,3.988,3.988,0,0,0-1.259,1.534c-1.208,2.318-.982,4.619-1.211,7.109a59.846,59.846,0,0,0-.058,8.961q.139,2.406.365,4.806A20.316,20.316,0,0,0,83.156,45a6.208,6.208,0,0,0,.257.68c2.882-.071,5.765-.036,8.648-.061a47.249,47.249,0,0,0,6.189-.312,20.617,20.617,0,0,1,3.2-.285c.563-1.947.365-4.292.42-6.227.066-2.337.073-4.664,0-6.994,0-.148,0-.3,0-.443-.023-1.265.514-1.179,1.51-1.793s1.949-1.233,2.9-1.881a5.693,5.693,0,0,0,1.38-1.007c-.633-1.254-1.382-2.458-2.106-3.622" transform="translate(-6.749 -1.477)" fill="#36498f"/>
        <path id="패스_12188" data-name="패스 12188" d="M129.113,19c-7.469,3.72-20.23,10.469-22.1,11.154a1.619,1.619,0,0,1-1.121.127,2.056,2.056,0,0,1-.578-.431,4.548,4.548,0,0,0-3.933-.925,7,7,0,0,0-3.542,2.121c-.946,1-1.672,1.977-3.089,2.125-1.567.162-3.357-.487-4.928-.624-3.432-.3-6.443.956-7.533,4.376a13.308,13.308,0,0,0-.34,1.3A14.16,14.16,0,0,0,85.081,50.26a4.446,4.446,0,0,0,3.242,1.785A12.218,12.218,0,0,0,96.1,50.694a8.956,8.956,0,0,0,4.451-6.357c.374-2.783,1.675-2.424,4.121-2.976a5.092,5.092,0,0,0,3.982-5.747,3.667,3.667,0,0,1-.022-1.184c.18-.781.942-1.264,1.637-1.661,6.5-3.715,13.158-7.677,20-10.974-.4-.926-.774-1.862-1.153-2.8" transform="translate(-6.718 -1.563)" fill="#eb9928"/>
        <path id="패스_12189" data-name="패스 12189" d="M97.464,17.442a2.213,2.213,0,0,1-1.429-.451,4.126,4.126,0,0,1-.59-3.123,2.484,2.484,0,0,1,.169-.646,5.814,5.814,0,0,1,.484-.775,5.535,5.535,0,0,0,.586-3.481c-.057-.8.057-1.964-.6-2.561a7.488,7.488,0,0,0-1.16-.884,4.549,4.549,0,0,0-1.64-.636A3.7,3.7,0,0,0,90.57,5.5a3.356,3.356,0,0,0-1.238,2.482,5.864,5.864,0,0,0,.2,3.219c.181.427.437.819.625,1.242a4.039,4.039,0,0,1,.386,2.316,4.881,4.881,0,0,1-.174,1.21,1.638,1.638,0,0,1-.723.954,2.438,2.438,0,0,1-1.236.19c.3.006.871,1.582,1.056,1.873a3.094,3.094,0,0,0,2.023,1.316,8.061,8.061,0,0,0,3.725-.2,4.1,4.1,0,0,0,1.7-1.126c.193-.218,1.06-1.49.55-1.537" transform="translate(-7.274 -0.398)" fill="#f0bf9c"/>
        <path id="패스_12190" data-name="패스 12190" d="M116.983,46.676a9.985,9.985,0,0,0-4.456-.48c-.894.045-1.789.1-2.673.231a23.771,23.771,0,0,0-5.682,1.729c-.977.41-1.965.749-2.955,1.089-.788.272-1.578.544-2.368.856q-5.921,2.342-11.78,4.835a19.278,19.278,0,0,0,1.913,6.544,2.431,2.431,0,0,0,.29.027,65.3,65.3,0,0,0,8.415-1.01c4.5-.739,9.015-1.478,13.442-2.6,3.253-.825,8.16-1.549,8.894-5.544a5.322,5.322,0,0,0-3.04-5.675" transform="translate(-7.163 -3.797)" fill="#e37474"/>
        <path id="패스_12191" data-name="패스 12191" d="M90.2,60.879c-.384.384-8.047,2.3-8.047,2.3l-.38-4.1L87.9,57.43Z" transform="translate(-6.728 -4.725)" fill="#f0bf9c"/>
        <path id="패스_12192" data-name="패스 12192" d="M81.169,63.635a13.527,13.527,0,0,1-4.06-.174c-1.108-.119-2.243.084-3.344-.085A3.741,3.741,0,0,1,70.724,60.3,3.224,3.224,0,0,1,71,58.959a2.6,2.6,0,0,1,.35-.636,2.047,2.047,0,0,1,1.421-.729,9.979,9.979,0,0,1,3.158.623,20.682,20.682,0,0,1,3.28,1.093,3.377,3.377,0,0,0,1.459.389c.126,0,1.434-.169,1.387-.336.341,1.206.147,2.539.643,3.689a4.836,4.836,0,0,1-1.527.583" transform="translate(-5.818 -4.737)" fill="#13285e"/>
        <path id="패스_12193" data-name="패스 12193" d="M94.715,63.127l8.047,1.15,1.15-4.215-7.664-1.916Z" transform="translate(-7.792 -4.784)" fill="#f0bf9c"/>
        <path id="패스_12194" data-name="패스 12194" d="M95.8,63.308c.286-.807.56-1.617.8-2.44.358-1.233.63-2.481,1.053-3.685-1.731-.822-3.513-1.531-5.3-2.228a44.772,44.772,0,0,1-4.137-1.873c-.635-.327-1.244-.711-1.858-1.075-.4-.234-1.336-1.054-1.78-1.054l-2.9-1.713a57.632,57.632,0,0,0-5.725-3.1,12.622,12.622,0,0,0-4-1.177,5.982,5.982,0,0,0-3.992.949,4.79,4.79,0,0,0-1.93,4.446A6.353,6.353,0,0,0,69.183,54.7c1.739,1.065,3.749,1.384,5.591,2.158,2.058.865,4.245,1.515,6.364,2.215q7.015,2.318,14.181,4.144a2.553,2.553,0,0,0,.48.088" transform="translate(-5.429 -3.697)" fill="#e37474"/>
        <path id="패스_12195" data-name="패스 12195" d="M113.131,66.7a5.486,5.486,0,0,0-.28-.649,23.967,23.967,0,0,0-2.88-4.125,31.031,31.031,0,0,0-2.77-3.7,1.776,1.776,0,0,0-1.444-.383,4.073,4.073,0,0,0-1.43.558,10.367,10.367,0,0,0-1.474.916,1.615,1.615,0,0,0-.183.174,9.082,9.082,0,0,1,.237,1.048,13.17,13.17,0,0,1,.061,2.014,9.5,9.5,0,0,1-.318,2.07c.706.053,1.561.108,1.674.121a7.841,7.841,0,0,1,4.365,2.211c.313.271.624.552.938.836.913.822,3.336,2.235,3.648.051a2.419,2.419,0,0,0-.145-1.141" transform="translate(-8.445 -4.757)" fill="#13285e"/>
        <path id="패스_12196" data-name="패스 12196" d="M89.736,10.034a.941.941,0,0,0,.1-.419,9.413,9.413,0,0,0-.2-1.68,1.945,1.945,0,0,1,.01-.664.856.856,0,0,1,.36-.542c.611-.376,1.2.18,1.8.129a1.082,1.082,0,0,0,.756-.569,3.95,3.95,0,0,1,.547-.812,1.267,1.267,0,0,1,1.354-.054,3.279,3.279,0,0,1,1.784,2.255c.081.288.189,1.916.347,2.588-.063-.273.373-.672.485-.891a1.913,1.913,0,0,0,.233-1.068c.051-1.342-.421-2.56-.451-3.872a4.756,4.756,0,0,0-.2-1.567c-.237-.635-.635-.725-1.216-.914-.808-.262-.8-.6-1.322-1.257A1.407,1.407,0,0,0,92.921.011a1.325,1.325,0,0,0-.862.813,1.147,1.147,0,0,1-.4.544c-.391.22-.848-.136-1.291-.2a.866.866,0,0,0-.893.425c-.095.19-.1.412-.191.6-.374.819-1.039-.481-1.567.229-.368.5.141.7.324,1.145a10.189,10.189,0,0,1,.32,2.4,28.15,28.15,0,0,0,.291,2.922c.073.3.693,1.817,1.079,1.145" transform="translate(-7.206 0)" fill="#13285e"/>
        <path id="패스_12197" data-name="패스 12197" d="M97.681,9.492a.863.863,0,0,0-.942.4.6.6,0,0,0-.074.321.757.757,0,0,0,.9.958c.729-.2.933-1.456.113-1.682" transform="translate(-7.95 -0.779)" fill="#f0bf9c"/>
        <path id="패스_12198" data-name="패스 12198" d="M90,9.723a.907.907,0,0,0-.1-.156.218.218,0,0,0-.028-.076.716.716,0,0,0-1.085.055,1.033,1.033,0,0,0-.189,1.125.917.917,0,0,0,1.221.218A.861.861,0,0,0,90,9.723" transform="translate(-7.281 -0.762)" fill="#f0bf9c"/>
        <path id="패스_12199" data-name="패스 12199" d="M92.8,12.205a4.357,4.357,0,0,0,.3.449,1.5,1.5,0,0,0,.491.334,1.173,1.173,0,0,0,1-.04c.2-.11.663-.521.6-.78a20.28,20.28,0,0,0-2.384.038" transform="translate(-7.634 -0.999)" fill="#fff"/>
        <path id="패스_12200" data-name="패스 12200" d="M94.844,40.456a2.616,2.616,0,0,0-1.249-.264,1.389,1.389,0,0,0-.206-.039,2.3,2.3,0,0,0-2.372,1.555,2.215,2.215,0,0,0-.117.685,2.518,2.518,0,0,0,.34,1.73A2.581,2.581,0,0,0,93.9,45.306a2.893,2.893,0,0,0,2.191-2.215,2.21,2.21,0,0,0-1.248-2.635" transform="translate(-7.476 -3.302)"/>
        <path id="패스_12201" data-name="패스 12201" d="M137.8,19.644c.528-.557.917-1.284.182-1.868l-.613-.486a.325.325,0,0,0-.112-.067.319.319,0,0,0-.144,0,26.049,26.049,0,0,0-4.388,1.627,2.814,2.814,0,0,0-1.233.714,1.108,1.108,0,0,0-.2.4,30.525,30.525,0,0,0,1.491,2.712,2.486,2.486,0,0,0,1.383-.522c1.012-.69,2.141-1.258,3.1-2.027a5.335,5.335,0,0,0,.532-.484" transform="translate(-10.801 -1.416)"/>
        <line id="선_1" data-name="선 1" x1="36.911" y2="20.271" transform="translate(85.164 18.254)" fill="none" stroke="#000" stroke-miterlimit="10" stroke-width="0.5"/>
        <line id="선_2" data-name="선 2" x1="36.496" y2="20.41" transform="translate(85.984 18.757)" fill="none" stroke="#000" stroke-miterlimit="10" stroke-width="0.5"/>
        <line id="선_3" data-name="선 3" x1="35.792" y2="20.19" transform="translate(86.902 19.895)" fill="none" stroke="#000" stroke-miterlimit="10" stroke-width="0.5"/>
        <path id="패스_12202" data-name="패스 12202" d="M108.556,42.515a2.175,2.175,0,0,1-.173-.466,3.755,3.755,0,0,1,.126-1.947c.786-2.638,3.077-4.5,4.666-6.751,1.028-1.457.265-2.719.472-4.328a4.076,4.076,0,0,1,.488-1.577,2.106,2.106,0,0,1,1.274-1,1.433,1.433,0,0,1,1.482.5,2.165,2.165,0,0,1,.3,1.165c.087,1.913-.819,3.5-1.034,5.379-.386,3.355-2.168,7.746-5.048,9.744a1.714,1.714,0,0,1-2.556-.725" transform="translate(-8.91 -2.173)" fill="#f0bf9c"/>
        <line id="선_4" data-name="선 4" x2="0.141" transform="translate(83.3 24.611)" fill="#e0ac9b"/>
        <path id="패스_12203" data-name="패스 12203" d="M88.943,34.944c-.7-1.816-2.28-3.1-3.08-4.837-.465-1.01-.736-2.1-1.131-3.139a6.209,6.209,0,0,0-1.811-2.755,3.023,3.023,0,0,0-1.787-.685,3.484,3.484,0,0,0-1.746.563.708.708,0,0,0-.119.428,17.145,17.145,0,0,0,.273,4.006l-.041-.038c.01.06.021.12.031.18a18.447,18.447,0,0,0,2.124,5.855c.009.017.017.034.025.05a15.269,15.269,0,0,0,1.786,2.667,5.437,5.437,0,0,0,1.285,1.177,2.5,2.5,0,0,0,1.668.387,4.993,4.993,0,0,0,1.867-.889,1.517,1.517,0,0,0,.39-.561,2.311,2.311,0,0,0,.267-2.408" transform="translate(-6.519 -1.936)" fill="#f0bf9c"/>
        <path id="패스_12204" data-name="패스 12204" d="M96.956,39.79l-.191.03c-.407.063-.816.061-1.215.129-.914.157-1.819.358-2.734.511a15,15,0,0,1-4.066.234,6.969,6.969,0,0,1-3.46-1.245,1.965,1.965,0,0,1-.6-.69,2.48,2.48,0,0,1-.128-1.2,2.413,2.413,0,0,1,.251-1.115,2.133,2.133,0,0,1,.36-.422,1.546,1.546,0,0,1,.5-.359,1.075,1.075,0,0,1,.731.017c.219.073.44.275.67.287a3.427,3.427,0,0,0,.66-.157,7.71,7.71,0,0,1,.857-.111,12.51,12.51,0,0,1,3.231.292c1.46.277,2.937.448,4.415.589.658.063,1.321.217,1.976.218,1.437,0,2.716-.877,4.151-.388.055.019.121.055.117.114a.114.114,0,0,1-.048.076,1.066,1.066,0,0,1-.61.163,2.5,2.5,0,0,0-.443.084c-.087.026-.19.079-.186.169.014.345,1.309.381,1.527.374a5.2,5.2,0,0,1,.918-.016,1.466,1.466,0,0,1,.623.246.811.811,0,0,1,.288.322.972.972,0,0,1-.319.991,3.945,3.945,0,0,1-3.988.919,5.744,5.744,0,0,0-1.15-.325,3.541,3.541,0,0,0-.874.063l-1.261.2" transform="translate(-6.955 -2.93)" fill="#f0bf9c"/>
        <path id="패스_12205" data-name="패스 12205" d="M86.832,22.876a6.6,6.6,0,0,0,.125-3.079c-.718-3.448-4.953-1.177-6.456.443-2.492,2.686-2.145,7.305-.741,10.467A35.337,35.337,0,0,1,85.9,28.8a22.769,22.769,0,0,1,.658-4.806c.1-.394.195-.76.278-1.114" transform="translate(-6.472 -1.48)" fill="#36498f"/>
        <path id="패스_12206" data-name="패스 12206" d="M133.077,19.13a2.7,2.7,0,0,1-.51-.637c-.173-.213-.506-.363-.711-.183a.148.148,0,0,0-.033.039.173.173,0,0,0,0,.116,2.612,2.612,0,0,0,.51,1.022c.049.334.329.554.531.825a4.637,4.637,0,0,1,.407.788,3.986,3.986,0,0,0,1.006,1.3.479.479,0,0,0,.192.115.352.352,0,0,0,.369-.2.964.964,0,0,0,.076-.442c0-.35-.01-.7-.04-1.048a.544.544,0,0,1,.467.251,2.343,2.343,0,0,0,.343.435.379.379,0,0,0,.5.015c.128-.132.066-.35-.006-.519a20.125,20.125,0,0,0-1.569-2.978,1.337,1.337,0,0,0-.331-.391.475.475,0,0,0-.485-.06c-.271.146-.235.548-.109.829s.308.584.2.874a1.145,1.145,0,0,1-.813-.152" transform="translate(-10.844 -1.443)"/>
      </g>
    </g>
  </g>
</svg>