<svg xmlns="http://www.w3.org/2000/svg" xmlns:xlink="http://www.w3.org/1999/xlink" width="104.573" height="149.554" viewBox="0 0 104.573 149.554"><script xmlns=""/>
  <defs>
    <clipPath id="clip-path">
      <rect id="사각형_11948" data-name="사각형 11948" width="104.573" height="84.821" fill="none"/>
    </clipPath>
    <clipPath id="clip-path-2">
      <rect id="사각형_11952" data-name="사각형 11952" width="20" height="31.54" fill="#ffe397"/>
    </clipPath>
  </defs>
  <g id="그룹_34564" data-name="그룹 34564" transform="translate(-327.288 -2485.883)">
    <g id="그룹_34039" data-name="그룹 34039" transform="translate(327.288 2550.617)">
      <g id="그룹_34038" data-name="그룹 34038" transform="translate(0 0)" clip-path="url(#clip-path)">
        <path id="패스_12207" data-name="패스 12207" d="M73.123,51.468c-2.442,2.013-1.858,3.845.046,6.068,3.176,3.71,13.975,13.446,14.024,13.483,1.231.928,2.463-.633,1.649-2.215C87.5,66.193,76.557,48.637,73.123,51.468" transform="translate(14.376 10.285)" fill="#ff5959"/>
        <path id="패스_12208" data-name="패스 12208" d="M86.3,65.8c.5-.11,1.589,1.416,1.589,1.416.33.264-2.078,3.023-3.969,4.254a.719.719,0,0,1-1.085-.778c.21-.931,2.963-4.781,3.465-4.892" transform="translate(16.65 13.228)" fill="#001830"/>
        <path id="패스_12209" data-name="패스 12209" d="M85.228,35.5c-.155-3.728-4.069-5.251-5.622-6-1.979-.961-2.1,6.7-3.466,7.715-1.589,1.184-2.024,3.338-2.342,5.293-.691,4.237-3.159,16.6-3.159,16.6h9.842c1.318-3.219,4.939-18.969,4.747-23.6" transform="translate(14.201 5.914)" fill="#fff"/>
        <path id="패스_12210" data-name="패스 12210" d="M61.7,47.679c-3.115.561-3.5,2.444-2.929,5.313.954,4.79,5.608,18.564,5.632,18.621.62,1.414,2.459.653,2.522-1.124.1-2.934-.846-23.6-5.225-22.81" transform="translate(11.77 9.581)" fill="#ff5959"/>
        <path id="패스_12211" data-name="패스 12211" d="M66.289,66.521c.492.149.693,2.012.693,2.012.157.393-3.292,1.62-5.544,1.768a.718.718,0,0,1-.564-1.208c.639-.71,4.923-2.72,5.415-2.571" transform="translate(12.199 13.372)" fill="#001830"/>
        <path id="패스_12212" data-name="패스 12212" d="M82.181,39.159c1.689-3.327-.979-6.57-1.965-7.988-1.256-1.805-5.106,4.814-6.8,5.034-1.964.255-3.4,1.92-4.631,3.469C66.11,43.031,57.907,52.6,57.907,52.6l8.583,4.816C69.215,55.258,80.081,43.3,82.181,39.159" transform="translate(11.641 6.204)" fill="#fff"/>
        <path id="패스_12213" data-name="패스 12213" d="M68.418,18.772c-3.848-1.559-7.807-4.2-7.15-5.824.465-1.147,4.985.11,8.834,1.669s6.59,3.753,6.125,4.9-3.961.812-7.809-.747" transform="translate(12.303 2.514)" fill="#ff5959"/>
        <path id="패스_12214" data-name="패스 12214" d="M63.3,10.486C62.38,7.194,60.649,3.377,60.6,2.4c-.067-1.366-.377-2.412-.926-2.4s-1.034,1.093-1.008,2.091a34.922,34.922,0,0,0,1.081,8.484c.83,2.955,1.7,5.729,2.6,6.683.316.336.656.183.966.095,1.191-.335,1.113-2.87-.008-6.868" transform="translate(11.794 0)" fill="#ff5959"/>
        <path id="패스_12215" data-name="패스 12215" d="M75.8,18.164c.629.831-.058,1.647-1.032,2.017a7.351,7.351,0,0,1-3.812.327A25.371,25.371,0,0,1,64.6,17.945c-.014-.275,1.729-4.56,2.418-5.1,2.635.589,7.085,3.082,8.783,5.321" transform="translate(12.986 2.582)" fill="#4d6aff"/>
        <path id="패스_12216" data-name="패스 12216" d="M72.264,15.915c-1.2-2.41-7.85-1.51-8.185-4.182,0-.028-.007-.054-.01-.08-.538-4.576,4.008-8.6,7.66-5.8,4.419,3.394,5.657,9.608.534,10.06" transform="translate(12.871 0.991)" fill="#001830"/>
        <path id="패스_12217" data-name="패스 12217" d="M68.556,16.911l4.175-1.357a6.9,6.9,0,0,1,8.693,4.429l5.722,17.464L69.156,41,66.551,31l-1.418-6.023c-.767-4.265-.2-6.888,3.423-8.065" transform="translate(13.034 3.059)" fill="#4d6aff"/>
        <path id="패스_12218" data-name="패스 12218" d="M71.119,19.19h0a1.7,1.7,0,0,1-2.1-1.169l-1.065-3.745,3.19-2.018,1.14,4.834a1.7,1.7,0,0,1-1.167,2.1" transform="translate(13.662 2.465)" fill="#ff5959"/>
        <path id="패스_12219" data-name="패스 12219" d="M68.929,13.207l2.293-.342a1.081,1.081,0,0,0-.319-2.138l-2.42.362Z" transform="translate(13.767 2.154)" fill="#ff5959"/>
        <path id="패스_12220" data-name="패스 12220" d="M68.025,7.459A3.077,3.077,0,0,0,65.7,9.229a4.8,4.8,0,0,0,.03,3.323,11.65,11.65,0,0,0,1.309,3.788c1.213,1.645,3.049.771,4.389-.251a1.651,1.651,0,0,0,.665-.99c.381-1.832-.221-3.614-.663-5.37a3.075,3.075,0,0,0-3.4-2.27" transform="translate(13.15 1.493)" fill="#ff5959"/>
        <path id="패스_12221" data-name="패스 12221" d="M65.174,11.421a8.522,8.522,0,0,0,8.187-.807,6.388,6.388,0,0,0-2.588-3.3,4.21,4.21,0,0,0-3.995-.1,4.267,4.267,0,0,0-1.6,4.207" transform="translate(13.084 1.359)" fill="#001830"/>
        <path id="패스_12222" data-name="패스 12222" d="M72.209,21.928c-4.015,1.056-8.769,1.312-9.213-.381-.316-1.2,4.058-2.9,8.073-3.954s7.525-.942,7.84.255-2.686,3.024-6.7,4.08" transform="translate(12.661 3.392)" fill="#ff5959"/>
        <path id="패스_12223" data-name="패스 12223" d="M63.1,17.742c-2.712-2.083-6.384-4.1-7.009-4.858-.872-1.055-1.746-1.705-2.176-1.366s-.174,1.5.446,2.28a34.964,34.964,0,0,0,5.948,6.146c2.434,1.869,4.8,3.567,6.082,3.794.454.08.634-.246.831-.5.754-.981-.828-2.965-4.121-5.494" transform="translate(10.796 2.298)" fill="#ff5959"/>
        <path id="패스_12224" data-name="패스 12224" d="M77.483,16.757c1,.288.942,1.352.382,2.233a7.361,7.361,0,0,1-2.856,2.545,25.4,25.4,0,0,1-6.625,1.756c-.177-.213-1.346-4.688-1.119-5.534,2.462-1.107,7.517-1.775,10.218-1" transform="translate(13.517 3.302)" fill="#4d6aff"/>
        <path id="패스_12225" data-name="패스 12225" d="M84.808,14.8a4,4,0,0,0-1.553-2.217c-.483-.369-1.018-.665-1.474-1.065a2.333,2.333,0,0,1-.874-1.542c-.047-.793.5-1.541.407-2.329a2.009,2.009,0,0,0-1.744-1.57,5.881,5.881,0,0,0-2.478.315L70.418,8.243,73.245,11.2a9.727,9.727,0,0,1,5.312,3.093A18.567,18.567,0,0,0,80.8,16.835a2.786,2.786,0,0,0,3.146.419,2.355,2.355,0,0,0,.866-2.45" transform="translate(14.157 1.215)" fill="#001830"/>
        <path id="패스_12226" data-name="패스 12226" d="M22.952,51.41c1.448,2.814.189,4.266-2.438,5.557C16.131,59.12,2.365,63.8,2.3,63.814c-1.5.366-2.013-1.554-.64-2.686,2.265-1.868,19.25-13.675,21.287-9.719" transform="translate(0.174 10.174)" fill="#ff5959"/>
        <path id="패스_12227" data-name="패스 12227" d="M2.1,59.422c-.418-.3-2.019.673-2.019.673-.407.114.715,3.6,1.966,5.477a.719.719,0,0,0,1.3-.287c.175-.938-.832-5.562-1.25-5.862" transform="translate(0 11.935)" fill="#001830"/>
        <path id="패스_12228" data-name="패스 12228" d="M17.647,32.349c1.615-3.364,5.812-3.216,7.537-3.3,2.2-.1-.717,6.98.137,8.458.992,1.715.54,3.865.061,5.787-1.039,4.166-3.655,16.5-3.655,16.5L12.686,55.91c.061-3.478,2.953-19.379,4.961-23.561" transform="translate(2.55 5.841)" fill="#001830"/>
        <path id="패스_12229" data-name="패스 12229" d="M25.55,49.851c3.067-.779,4.2.775,4.867,3.625C31.53,58.23,33,72.7,33,72.757c.022,1.543-1.967,1.613-2.76.022-1.31-2.628-9-21.832-4.686-22.928" transform="translate(4.875 9.982)" fill="#ff5959"/>
        <path id="패스_12230" data-name="패스 12230" d="M29.349,68.739c-.387.34.2,2.119.2,2.119.019.423,3.668.112,5.778-.686a.719.719,0,0,0,.014-1.334c-.876-.381-5.608-.438-5.994-.1" transform="translate(5.874 13.774)" fill="#001830"/>
        <path id="패스_12231" data-name="패스 12231" d="M22.121,33.384c.674-3.67,4.762-4.631,6.405-5.161,2.095-.674,1.142,6.923,2.355,8.125,1.408,1.393,1.537,3.587,1.581,5.567.092,4.293.76,16,.76,16l-9.665,1.219c-.855-3.373-2.275-21.183-1.436-25.745" transform="translate(4.396 5.666)" fill="#001830"/>
        <path id="패스_12232" data-name="패스 12232" d="M29.346,23.613c3.5,2.234,7.947,3.93,8.889,2.455.665-1.042-2.977-4-6.477-6.233s-6.877-3.2-7.543-2.155,1.631,3.7,5.131,5.933" transform="translate(4.845 3.47)" fill="#ff5959"/>
        <path id="패스_12233" data-name="패스 12233" d="M39.457,21.714c3.219-1.153,7.332-1.954,8.159-2.483,1.153-.736,2.185-1.089,2.491-.633s-.293,1.477-1.123,2.033a34.905,34.905,0,0,1-7.541,4.032c-2.89,1.035-5.657,1.929-6.952,1.752-.456-.061-.528-.428-.638-.731-.417-1.165,1.7-2.57,5.6-3.971" transform="translate(6.795 3.698)" fill="#ff5959"/>
        <path id="패스_12234" data-name="패스 12234" d="M25.139,16.818c-1.042-.032-1.31,1-1.046,2.009a7.348,7.348,0,0,0,1.941,3.3,25.377,25.377,0,0,0,5.77,3.7c.233-.148,2.717-4.051,2.759-4.925-2.006-1.808-6.614-3.99-9.423-4.078" transform="translate(4.824 3.381)" fill="#4d6aff"/>
        <path id="패스_12235" data-name="패스 12235" d="M28.374,15.182c1.2-2.41,7.85-1.51,8.185-4.182,0-.026.007-.054.01-.08.538-4.576-4.008-8.6-7.66-5.8-4.417,3.394-5.657,9.608-.534,10.06" transform="translate(5.033 0.843)" fill="#001830"/>
        <path id="패스_12236" data-name="패스 12236" d="M33.879,16.178,29.7,14.821a6.9,6.9,0,0,0-8.693,4.429L15.289,36.714l17.989,3.55,2.605-10L37.3,24.243c.767-4.265.2-6.888-3.423-8.065" transform="translate(3.074 2.912)" fill="#ffd24d"/>
        <path id="패스_12237" data-name="패스 12237" d="M28.316,18.456h0a1.7,1.7,0,0,0,2.1-1.169l1.065-3.745-3.19-2.018-1.14,4.834a1.7,1.7,0,0,0,1.167,2.1" transform="translate(5.445 2.317)" fill="#ff5959"/>
        <path id="패스_12238" data-name="패스 12238" d="M30.384,12.474l-2.293-.342a1.081,1.081,0,0,1,.319-2.138l2.42.362Z" transform="translate(5.462 2.007)" fill="#ff5959"/>
        <path id="패스_12239" data-name="패스 12239" d="M31.814,6.726A3.077,3.077,0,0,1,34.142,8.5a4.8,4.8,0,0,1-.03,3.323A11.65,11.65,0,0,1,32.8,15.607c-1.213,1.645-3.049.771-4.389-.25a1.657,1.657,0,0,1-.665-.991c-.381-1.832.221-3.614.664-5.37a3.074,3.074,0,0,1,3.4-2.27" transform="translate(5.554 1.346)" fill="#ff5959"/>
        <path id="패스_12240" data-name="패스 12240" d="M34.913,10.688a8.524,8.524,0,0,1-8.189-.807,6.388,6.388,0,0,1,2.588-3.3,4.21,4.21,0,0,1,3.995-.1,4.27,4.27,0,0,1,1.606,4.207" transform="translate(5.372 1.212)" fill="#001830"/>
        <path id="패스_12241" data-name="패스 12241" d="M29.161,21.195c4.015,1.056,8.769,1.312,9.213-.381.316-1.2-4.058-2.9-8.073-3.954s-7.524-.942-7.84.255,2.686,3.024,6.7,4.08" transform="translate(4.511 3.244)" fill="#ff5959"/>
        <path id="패스_12242" data-name="패스 12242" d="M37.893,17.009c2.712-2.083,6.384-4.1,7.009-4.858.872-1.055,1.746-1.705,2.176-1.366s.174,1.5-.446,2.28a34.964,34.964,0,0,1-5.948,6.146c-2.435,1.869-4.8,3.567-6.082,3.794-.454.08-.634-.245-.831-.5-.753-.981.828-2.965,4.121-5.494" transform="translate(6.752 2.15)" fill="#ff5959"/>
        <path id="패스_12243" data-name="패스 12243" d="M23.063,16.023c-1,.288-.942,1.352-.382,2.233A7.361,7.361,0,0,0,25.537,20.8a25.4,25.4,0,0,0,6.625,1.756c.177-.213,1.346-4.688,1.119-5.534-2.462-1.107-7.517-1.775-10.218-1" transform="translate(4.479 3.154)" fill="#ffd24d"/>
      </g>
    </g>
    <g id="그룹_34058" data-name="그룹 34058" transform="translate(399 2485.883)">
      <g id="그룹_34051" data-name="그룹 34051" transform="translate(0 0)" clip-path="url(#clip-path-2)">
        <path id="패스_12317" data-name="패스 12317" d="M17.1,15.047c.334-.735.7-1.455.995-2.2a6.342,6.342,0,0,0-5.44-8.632c-1.236-.114-.887.739-.893,1.3-.033,3.056-.015,6.113-.015,9.17,0,3.953.027,7.9-.01,11.856-.025,2.628-1.755,4.444-4.549,4.9-3.106.5-6.142-.878-6.958-3.218a3.728,3.728,0,0,1,1.434-4.357,5.836,5.836,0,0,1,5.04-1.307c1.849.417,1.885-.4,1.872-1.8-.053-6.188-.031-12.378-.025-18.568,0-2.523.04-2.547,2.491-1.648a22.083,22.083,0,0,1,5.184,2.589c4.663,3.286,5.06,7.946.875,11.92" transform="translate(0 0)" fill="#ffe397"/>
      </g>
    </g>
  </g>
</svg>