<svg xmlns="http://www.w3.org/2000/svg" xmlns:xlink="http://www.w3.org/1999/xlink" width="135.601" height="123.84" viewBox="0 0 135.601 123.84"><script xmlns=""/>
  <defs>
    <clipPath id="clip-path">
      <rect id="사각형_11943" data-name="사각형 11943" width="135.601" height="94.015" fill="none"/>
    </clipPath>
    <clipPath id="clip-path-3">
      <rect id="사각형_11938" data-name="사각형 11938" width="135.601" height="88.622" fill="none"/>
    </clipPath>
    <clipPath id="clip-path-4">
      <path id="패스_12140" data-name="패스 12140" d="M83.585,24.785A681.29,681.29,0,0,0,22.213,59.756a3.469,3.469,0,0,0-.007,5.824L62.244,91.594c1.4.907,2.931,1.851,4.588,1.7a7.473,7.473,0,0,0,3.381-1.54,516.064,516.064,0,0,0,59.359-47.091,3.469,3.469,0,0,0-1.073-5.786c-6.367-2.5-16.1-6.969-17.739-7.562-7.824-2.828-15.447-6.32-23.767-6.32" transform="translate(-20.625 -24.785)" fill="none"/>
    </clipPath>
    <clipPath id="clip-path-5">
      <rect id="사각형_11939" data-name="사각형 11939" width="68.188" height="31.578" fill="none"/>
    </clipPath>
    <clipPath id="clip-path-6">
      <path id="패스_12160" data-name="패스 12160" d="M42.013,48.578c-.706.171-2.293,1.475-2.389,2.244-.121.951,1.523,2.139,2.207,2.787a17.45,17.45,0,0,0,6.354,4.109c1.6.532,3.3.723,4.931,1.14,1.772.453,3.157,1.477,4.8,2.183a28.858,28.858,0,0,1,4.979,2.794c3.884,2.68,7.483,6.557,12.131,7.781a14.94,14.94,0,0,0,3.576.462,9.663,9.663,0,0,0,5.416-1.673c1.466-.97,4.628-3.506,3.194-5.565-.027-.038-.055-.076-.085-.114A14.529,14.529,0,0,0,83.917,62.5c-2.347-1.526-4.928-2.5-7.166-4.133a20.365,20.365,0,0,0-8.352-3.28c-3.822-.716-7.747-.853-11.522-1.782-3.939-.97-7.619-2.778-11.473-4.043a10.59,10.59,0,0,0-2.916-.736,2.038,2.038,0,0,0-.475.051" transform="translate(-39.618 -48.527)" fill="none"/>
    </clipPath>
    <clipPath id="clip-path-7">
      <rect id="사각형_11941" data-name="사각형 11941" width="26.517" height="10.118" fill="none"/>
    </clipPath>
    <clipPath id="clip-path-9">
      <rect id="사각형_11953" data-name="사각형 11953" width="20.072" height="23.454" fill="#ffe397"/>
    </clipPath>
  </defs>
  <g id="그룹_34564" data-name="그룹 34564" transform="translate(-1740 -2268.676)">
    <g id="그룹_34563" data-name="그룹 34563">
      <g id="그룹_34027" data-name="그룹 34027" transform="translate(1740 2298.5)">
        <g id="그룹_34026" data-name="그룹 34026" clip-path="url(#clip-path)">
          <g id="그룹_34018" data-name="그룹 34018" transform="translate(0 0)">
            <g id="그룹_34017" data-name="그룹 34017" clip-path="url(#clip-path)">
              <path id="패스_12134" data-name="패스 12134" d="M83.585,24.785a681.093,681.093,0,0,0-61.372,34.97A3.468,3.468,0,0,0,22.2,65.58l40.04,26.014c1.394.906,2.931,1.85,4.588,1.7a7.478,7.478,0,0,0,3.381-1.541,515.391,515.391,0,0,0,59.359-47.091,3.469,3.469,0,0,0-1.073-5.786c-6.367-2.5-16.1-6.969-17.739-7.562-7.824-2.828-15.447-6.319-23.767-6.319" transform="translate(-4.485 -5.39)" fill="#e8e8d3"/>
              <g id="그룹_34013" data-name="그룹 34013" transform="translate(0 5.393)" opacity="0.42">
                <g id="그룹_34012" data-name="그룹 34012">
                  <g id="그룹_34011" data-name="그룹 34011" clip-path="url(#clip-path-3)">
                    <g id="그룹_34010" data-name="그룹 34010" transform="translate(16.14 14.002)">
                      <g id="그룹_34009" data-name="그룹 34009" clip-path="url(#clip-path-4)">
                        <path id="패스_12135" data-name="패스 12135" d="M139.3,41.416c-13.752,10.762-27.954,20.869-42.316,30.8Q86.456,79.487,75.923,86.751c-7.09,4.895-14.586,9.489-21.3,14.891-.713.574.2,1.7.963,1.248,7.577-4.469,14.662-10,21.89-15.021Q88.595,80.153,99.71,72.434c13.792-9.6,27.584-19.306,40.373-30.231.553-.472-.236-1.218-.786-.786" transform="translate(-27.963 -28.373)" fill="#946d8c"/>
                        <path id="패스_12136" data-name="패스 12136" d="M135.31,33.03q-23.683,16.2-47.4,32.35Q76.365,73.23,64.793,81.041c-7.7,5.2-16.03,9.969-23.267,15.8-.688.554.191,1.595.919,1.19C50.5,93.557,58,87.626,65.611,82.44q11.864-8.078,23.7-16.2,23.355-16.021,46.549-32.273c.567-.4.033-1.338-.549-.94" transform="translate(-25.116 -26.557)" fill="#946d8c"/>
                        <path id="패스_12137" data-name="패스 12137" d="M132.33,25.451Q105.816,41.027,80.161,58C63.489,69.043,46.626,80.263,30.937,92.68c-.724.573.232,1.822.992,1.286C48.506,82.311,64.673,70.142,81.507,58.834q25.224-16.943,51.336-32.506a.508.508,0,0,0-.512-.876" transform="translate(-22.811 -24.914)" fill="#946d8c"/>
                        <path id="패스_12138" data-name="패스 12138" d="M124.788,16.777c-19.361,10.447-38.359,21.5-56.9,33.344Q54.149,58.9,40.736,68.175c-4.482,3.1-8.927,6.252-13.363,9.416-2.239,1.6-4.479,3.192-6.75,4.745-2.343,1.6-5.911,3.1-7.181,5.674a.759.759,0,0,0-1.309-.765l-.126.182a.786.786,0,0,0,.278,1.059,1.848,1.848,0,0,0,1.654.221c.975-.165,2.991-1.845,3.815-2.383,1.257-.819,2.5-1.661,3.733-2.512,4.921-3.394,9.727-6.954,14.6-10.41Q50.3,63.329,64.9,53.815,94.385,34.6,125.281,17.622c.552-.3.06-1.143-.494-.844" transform="translate(-18.726 -23.03)" fill="#946d8c"/>
                        <path id="패스_12139" data-name="패스 12139" d="M135.531,50.333c-5.552-7.678-14.1-12.194-22.245-16.633Q101.48,27.264,90.21,19.953,100.4,13.71,110.682,7.635a.4.4,0,0,0-.4-.686Q99.69,13.024,89.224,19.3q-3.281-2.147-6.517-4.367c-.378-.26-.729.353-.358.613q3.043,2.134,6.132,4.2-3.736,2.242-7.459,4.505c-3.376-1.919-6.754-3.833-10.117-5.775a.471.471,0,0,0-.475.813c3.179,1.879,6.372,3.73,9.563,5.588-.988.6-1.98,1.2-2.967,1.8-3.77-2.442-7.465-5-11.043-7.728-.307-.233-.717.293-.416.538,3.4,2.753,6.918,5.318,10.524,7.76q-7.813,4.8-15.566,9.693c-4.727-2.632-9.448-5.274-14.189-7.883a.257.257,0,0,0-.26.444c4.422,2.794,8.919,5.469,13.46,8.071q-2.737,1.74-5.468,3.489L40.736,33.7a.569.569,0,0,0-.574.982l12.691,7.17q-7.534,4.86-14.991,9.836c-6.82-3.611-11.884-6.717-12.963-8.659-.151-.272-.544-.033-.412.24,2.03,4.191,7.847,6.294,11.664,8.479.29.167.584.329.876.494-.832.554-1.667,1.1-2.5,1.657-3.571-1.995-7.087-4.091-10.5-6.4-.491-.332-.91.44-.456.781a103.856,103.856,0,0,0,9.732,6.432c-2.067,1.384-4.143,2.754-6.2,4.148-4.279-2.179-8.88-4.285-12.266-7.486a.434.434,0,0,0-.614.614c3.287,3.337,7.742,5.338,11.836,7.572C17.342,65.461,8.277,71.183.168,77.905c-.469.388.136,1.145.645.835,9.2-5.608,17.823-12.275,26.719-18.36q7.649,4.336,15.119,8.974c10.1,6.294,19.477,13.73,29.587,19.95.408.251.885-.344.519-.672C64.5,81.237,54.522,75.265,45.15,69.409q-7.416-4.635-15.028-8.946c-.491-.278-1-.548-1.507-.817,2.027-1.381,4.069-2.738,6.1-4.108,6.418,3.687,13.114,6.916,19.674,10.324q7.94,4.125,15.585,8.771c5.292,3.23,10.286,7.19,15.715,10.148.5.274,1.078-.4.63-.816-4.205-3.88-9.5-6.886-14.348-9.9-5.276-3.274-10.7-6.309-16.22-9.157C49.143,61.5,42.465,58.263,35.964,54.7c.826-.555,1.656-1.1,2.482-1.657q7.285,4.1,14.711,7.946c5.659,2.947,11.4,5.727,17.116,8.554,2.589,1.28,5.169,2.581,7.707,3.961,1.358.739,9.01,4.266,8.9,5.7a.406.406,0,0,0,.751.2c1.736-3.62-29.171-16.976-48.306-26.954q7.415-4.963,14.886-9.839L72.562,52.986c9.923,5.606,19.455,11.558,29.039,17.678a.4.4,0,0,0,.174.189l.82.442c.65.35,1.423-.538.821-1.064C94.829,62.73,83.9,57.551,73.978,52.07L55.433,41.821c1.805-1.171,3.624-2.321,5.435-3.484C66.7,41.653,72.6,44.848,78.519,47.993c10.52,5.587,21.073,10.73,30.788,17.675.389.278.866-.345.511-.663-8.629-7.713-19.942-12.284-30.089-17.6-6-3.148-11.938-6.414-17.859-9.706q7.638-4.9,15.337-9.7c5.586,3.727,11.354,7.183,17.16,10.585,10.356,6.069,20.326,12.53,30.381,19.061.528.344,1.171-.465.682-.883-8.707-7.45-19.319-12.928-29.222-18.588C90.124,34.69,84.057,31.173,78.158,27.4c.992-.62,1.988-1.233,2.982-1.851q9.223,5.36,18.506,10.61c9.707,5.468,19.468,11.6,29.73,15.962a.5.5,0,0,0,.5-.855c-9.4-6.05-19.787-10.831-29.581-16.217q-9.1-5-18.123-10.142,3.64-2.26,7.292-4.5,10.587,7.041,21.682,13.275c8.641,4.847,17.176,9.53,23.722,17.16.308.359.945-.121.663-.511" transform="translate(-16.14 -20.894)" fill="#946d8c"/>
                      </g>
                    </g>
                  </g>
                </g>
              </g>
              <g id="그룹_34016" data-name="그룹 34016" transform="translate(36.202 31.46)" opacity="0.23" style="mix-blend-mode: multiply;isolation: isolate">
                <g id="그룹_34015" data-name="그룹 34015">
                  <g id="그룹_34014" data-name="그룹 34014" clip-path="url(#clip-path-5)">
                    <path id="패스_12141" data-name="패스 12141" d="M103.646,42.212c.284.139.576.278.878.417,2.177,1,4.6,1.035,6.749,2.189,1.479.793,2.908,2.029,3.143,3.691a4.689,4.689,0,0,1-.817,3.1,14.715,14.715,0,0,1-4.364,3.982Q101.274,61.036,92.874,65.8c-4.733,2.683-10.073,6.485-15.8,5.928a17.241,17.241,0,0,1-7.246-2.618c-2.852-1.747-5.42-3.946-8.358-5.543-2.065-1.122-3.885-2.317-5.814-3.572-2.3-1.494-5.356-2.256-7.849-3.431-.665-.314-1.408-.736-1.532-1.462a1.958,1.958,0,0,1,.441-1.4,9.662,9.662,0,0,1,4.23-3.07C58.342,47.4,66.592,47.573,74.33,45.7c3.851-.931,7.231-2.857,11-3.937a32,32,0,0,1,13.588-1.294,15.634,15.634,0,0,1,4.723,1.74" transform="translate(-46.262 -40.202)" fill="#798584"/>
                  </g>
                </g>
              </g>
              <path id="패스_12142" data-name="패스 12142" d="M95.212,29.821a8.065,8.065,0,0,1-.128-3.906c.316-2.4,1.3-4.784,1-7.234-.266-2.226-2.823-4.132-1.236-6.414.293-.047.484.327.453.623a3.712,3.712,0,0,0-.137.876c.142,1.013,1.246.558,1.812.93.759.5,1.276,2.333,1.437,3.173.362,1.9.323,3.827.675,5.727.4,2.168.553,4.634-.616,6.609-.972,1.642-2.543,1.513-3.262-.386" transform="translate(-20.514 -2.667)" fill="#f0bf9c"/>
              <path id="패스_12143" data-name="패스 12143" d="M102.838,8.814a4.983,4.983,0,0,0,.976,2.519c.493.6,1.334,1.053,1.649,1.78.134.311.113.647.233.968.39,1.046,1.077,2.138,2.329,2.084a4.417,4.417,0,0,0,2.057-.785,21.379,21.379,0,0,0,1.959-1.362,1.359,1.359,0,0,0,.342-.344,1.065,1.065,0,0,0-.072-1.043c-.178-.318-.437-.585-.621-.9a3.522,3.522,0,0,1-.384-1.233,5.7,5.7,0,0,1,.233-2.981,2.933,2.933,0,0,0,.389-1.143,3.947,3.947,0,0,0-.2-1.438A5.294,5.294,0,0,0,110.7,3.286a5.244,5.244,0,0,0-2.287-1.865,4.915,4.915,0,0,0-3.081.027,3.739,3.739,0,0,0-1.082.575A3.59,3.59,0,0,0,103.3,3.2a8.365,8.365,0,0,0-.581,4.436c.027.389.06.786.117,1.178" transform="translate(-22.326 -0.258)" fill="#f0bf9c"/>
              <path id="패스_12144" data-name="패스 12144" d="M127.394,44.623a2.322,2.322,0,0,1-.56.305l-1.064.459a.541.541,0,0,1-.416.058c-.883-.377-.347-3.2-.4-3.944-.12-1.756-.444-3.489-.614-5.24-.205-2.112-.711-4.183-.941-6.293a20.039,20.039,0,0,0-.83-4.636,11.175,11.175,0,0,1-1-4.53c.074-.892.619-1.923,1.514-1.9.743.016,1.25.746,1.564,1.42,1.4,3.016,1.529,6.446,1.625,9.77.1,3.543-.214,7.069.3,10.545a5.312,5.312,0,0,1,.048,1.915c.088-.394.039-1.2.585-1.361.589-.177.992.557,1.027,1.053a3.419,3.419,0,0,1-.2,1.206,2.3,2.3,0,0,1-.631,1.177" transform="translate(-26.432 -4.109)" fill="#d6a07a"/>
              <path id="패스_12145" data-name="패스 12145" d="M83.555,54.3a1.651,1.651,0,0,1-1.61-.153,10.422,10.422,0,0,1-3.492-3.388,2.806,2.806,0,0,1-.589-1.283,1.039,1.039,0,0,1,.669-1.126,1.248,1.248,0,0,1,.777.117,3.275,3.275,0,0,1,1.049.722c.562.578,1.012,1.422,1.813,1.5.647.065,1.223-.423,1.869-.5.9-.113,1.961.865,1.632,1.788-.153.433-.617.74-.934,1.043-.4.379-.725.991-1.184,1.283" transform="translate(-16.931 -10.509)" fill="#262538"/>
              <path id="패스_12146" data-name="패스 12146" d="M86.974,51.254a.3.3,0,0,1-.178.076.3.3,0,0,1-.18-.1l-2.391-2.223c-.061-.056-.128-.128-.117-.211a.259.259,0,0,1,.07-.128,21.982,21.982,0,0,1,6.921-5.54,7.307,7.307,0,0,1,4.427-1.009c.826.139,1.9.686,1.9,1.671,0,.766-.872,1.078-1.434,1.425Q93.043,47.04,90.178,49q-1.616,1.106-3.2,2.252" transform="translate(-18.29 -9.145)" fill="#c2404b"/>
              <path id="패스_12147" data-name="패스 12147" d="M104.285,29.908c-1.8,1.861-3.832,3.737-6.382,4.189a1.811,1.811,0,0,1-1.11-.07c-.689-.339-.785-1.27-.755-2.038a6.548,6.548,0,0,1,.683-3.061,7.365,7.365,0,0,1,1.606-1.754q2.258-1.984,4.528-3.952a1.543,1.543,0,0,1,1.842-.3,2.127,2.127,0,0,1,.984,1.018,4.961,4.961,0,0,1,.39,3.151,6.037,6.037,0,0,1-1.787,2.817" transform="translate(-20.883 -4.946)" fill="#f0bf9c"/>
              <path id="패스_12148" data-name="패스 12148" d="M119.449,48.381a3.7,3.7,0,0,0-1.271-1.622,13.272,13.272,0,0,0-3.674-1.743,64.324,64.324,0,0,1-9.323-4.28q-1.149-.643-2.272-1.333c-.578-.354-.987-.818-1.525-1.2a22.013,22.013,0,0,0-4.848-2.229,3.862,3.862,0,0,0-2.568-.311,2.692,2.692,0,0,0-1.6,2.576,6.991,6.991,0,0,0,.925,3.068c2.87,5.771,7.261,12.168,13.882,13.911a14.9,14.9,0,0,0,3.576.462,9.657,9.657,0,0,0,5.416-1.673c1.812-1.2,4.164-3.169,3.282-5.63" transform="translate(-20.086 -7.73)" fill="#c2404b"/>
              <path id="패스_12149" data-name="패스 12149" d="M122.248,42.358c-.557-3.24-.03-6.563-.516-9.762-.168-1.107-.45-1.426.224-2.473.4-.628,1.1-1.1.932-1.953q-.462-2.346-.923-4.693a17.087,17.087,0,0,0-1.115-3.955,5.743,5.743,0,0,0-2.768-2.928,11.673,11.673,0,0,0-3.355-.689,11.828,11.828,0,0,0-3.578-.044,9.219,9.219,0,0,0-1.578.485,4.736,4.736,0,0,0-2.208,1.421,6.557,6.557,0,0,0-.753,2.672,30.08,30.08,0,0,0,0,3.993c.036,2.534-.843,4.876-.948,7.35-.11,2.567-.865,5.106-1.216,7.66a21.232,21.232,0,0,0-.231,2.28,4.424,4.424,0,0,0,.67,2.862,4.133,4.133,0,0,0,1.379,1.01,17.471,17.471,0,0,0,3.4,1.326,18.479,18.479,0,0,0,7.249.506c1.967-.254,5.3-.246,5.551-2.76a8.622,8.622,0,0,0-.218-2.308" transform="translate(-22.662 -3.423)" fill="#13285e"/>
              <path id="패스_12150" data-name="패스 12150" d="M110.09,15.936a1.322,1.322,0,0,0-.515.083,17.772,17.772,0,0,0-8.416,5.748c-.2.244-2.1,2.6-1.916,2.789,1.222,1.26,2.365,2.594,3.478,3.957.858.867,1.689,1.762,2.523,2.656.023-.038.05-.074.07-.112a48.542,48.542,0,0,0,3.33-7.5c.376-1.107.7-2.232,1.007-3.359.155-.576,1.223-3.928.624-4.209a.563.563,0,0,0-.184-.049" transform="translate(-21.578 -3.465)" fill="#13285e"/>
              <path id="패스_12151" data-name="패스 12151" d="M76.483,55.312a1.653,1.653,0,0,1-1.61-.153,10.422,10.422,0,0,1-3.492-3.388,2.806,2.806,0,0,1-.589-1.283,1.039,1.039,0,0,1,.669-1.126,1.248,1.248,0,0,1,.777.117,3.275,3.275,0,0,1,1.049.722c.562.578,1.012,1.422,1.813,1.5.647.065,1.223-.423,1.869-.5.9-.113,1.961.865,1.632,1.788-.153.433-.617.74-.934,1.043-.4.379-.725.991-1.184,1.283" transform="translate(-15.393 -10.729)" fill="#262538"/>
              <path id="패스_12152" data-name="패스 12152" d="M111.994,7.8q-.162.656-.361,1.3a2.37,2.37,0,0,1-1.7,1.9,2.964,2.964,0,0,1-2.535-.508,6.57,6.57,0,0,1-.9-1.379c-.973-1.545-2.825-1.582-3.874-3.061a4.114,4.114,0,0,1-.828-2.759A3.989,3.989,0,0,1,104.44.315a4.248,4.248,0,0,1,3.313.044c.516.249.906.646,1.427.906q1.029.513,2.027,1.089a2.559,2.559,0,0,1,.556.394,1.965,1.965,0,0,1,.426.747,6.662,6.662,0,0,1-.021,3.548c-.054.252-.112.5-.174.753" transform="translate(-22.134 0)" fill="#eb9928"/>
              <path id="패스_12153" data-name="패스 12153" d="M93.163,36.188c-1.353-1.415-3.172.095-4.277,1.007-1.679,1.387-3.251,2.893-4.824,4.4-2.3,2.2-4.541,4.622-6.823,6.893a23,23,0,0,1,2.266,2.341c.534.476.684.138,1.266-.275L82.4,49.4l6.274-4.448a20.817,20.817,0,0,0,3.2-2.6,6.992,6.992,0,0,0,1.921-3.586,3.055,3.055,0,0,0-.509-2.442c-.039-.047-.079-.092-.119-.133" transform="translate(-16.796 -7.743)" fill="#e34b58"/>
              <path id="패스_12154" data-name="패스 12154" d="M67.441,43.844c.831-1.137,1.889-2.751,2.989-3.161,1.38-.514,2.865.621,3.783,1.522,4.7,4.618,7.611,10.727,10.1,16.828a9.285,9.285,0,0,1,.779,2.66,3.245,3.245,0,0,1-.8,2.575,3.293,3.293,0,0,1-3.519.48c-3.391-1.37-5.128-4.69-6.841-7.674-1.2-2.093-1.718-4.224-3.778-5.6a1.11,1.11,0,0,0-.509-.222,1.193,1.193,0,0,0-.81.39,20.886,20.886,0,0,1-6.74,4.206,1.957,1.957,0,0,1-2.03-.164c-.641-.672-.141-1.769.384-2.534q3.089-4.51,6.554-8.745c.136-.166.28-.358.432-.566" transform="translate(-12.997 -8.819)" fill="#19357d"/>
              <path id="패스_12155" data-name="패스 12155" d="M78.987,25.816c.91,1,2.287,1.712,2.6,3.122a4.92,4.92,0,0,1,.053,1.305c-.06,1.249-1.036,5.841,1.643,4.885a2.358,2.358,0,0,0,1.307-1.368,7.01,7.01,0,0,0,.4-1.9,44.518,44.518,0,0,1,.749-5.249c.307-1.305.721-2.562.935-3.889a10.767,10.767,0,0,0,.394-3.64,2.865,2.865,0,0,0-2.038-2.349c-1.3-.275-2.524.647-3.443,1.6a19.881,19.881,0,0,0-2.744,3.584,4.092,4.092,0,0,0-.663,1.682,2.737,2.737,0,0,0,.812,2.219" transform="translate(-16.997 -3.628)" fill="#f0bf9c"/>
              <path id="패스_12156" data-name="패스 12156" d="M101.707,60.916a10.882,10.882,0,0,0,2.315.576.725.725,0,0,1,.516.434.57.57,0,0,1-.356.616,1.666,1.666,0,0,1-.761.086l-1.61-.067a6.092,6.092,0,0,1-2.605-.5c-1.277-.671-1.5-2.524-1.912-3.783Q96.383,55.5,95.526,52.7c-.621-2.029-1.529-3.958-2.175-5.98a11.625,11.625,0,0,1-.851-4.25c.049-.693.229-2.208,1.272-2.038.853.139,1.6,1.847,1.938,2.542a69.444,69.444,0,0,1,4.183,12.737l.951,3.683a2.75,2.75,0,0,0,.609,1.32,1.465,1.465,0,0,0,.254.2" transform="translate(-20.112 -8.79)" fill="#d6a07a"/>
              <path id="패스_12157" data-name="패스 12157" d="M37.309,50.381a1.653,1.653,0,0,1-.735-1.441,10.432,10.432,0,0,1,.986-4.764,2.8,2.8,0,0,1,.766-1.186,1.038,1.038,0,0,1,1.31-.039,1.239,1.239,0,0,1,.318.718,3.256,3.256,0,0,1-.046,1.272c-.185.784-.657,1.616-.293,2.336.293.581,1.013.805,1.428,1.307a1.516,1.516,0,0,1-.635,2.337,3.17,3.17,0,0,1-1.381-.229,9.772,9.772,0,0,1-1.718-.311" transform="translate(-7.949 -9.293)" fill="#e34b58"/>
              <path id="패스_12158" data-name="패스 12158" d="M87.209,64.84c-.027-.038-.055-.077-.085-.114A14.511,14.511,0,0,0,83.917,62.5c-2.347-1.526-4.928-2.5-7.165-4.133A20.384,20.384,0,0,0,68.4,55.086c-3.822-.715-7.746-.852-11.522-1.782-3.94-.97-7.619-2.777-11.474-4.043-.9-.3-2.427-.917-3.39-.684-.706.171-2.292,1.476-2.389,2.244-.121.951,1.523,2.139,2.207,2.787a17.442,17.442,0,0,0,6.354,4.11c1.6.533,3.3.722,4.931,1.14,1.772.452,3.157,1.477,4.8,2.183a28.858,28.858,0,0,1,4.979,2.794c3.884,2.68,7.483,6.556,12.131,7.78a14.9,14.9,0,0,0,3.576.463A9.664,9.664,0,0,0,84.015,70.4c1.466-.97,4.628-3.505,3.194-5.565" transform="translate(-8.615 -10.552)" fill="#13285e"/>
            </g>
          </g>
          <g id="그룹_34023" data-name="그룹 34023" transform="translate(31.003 37.974)">
            <g id="그룹_34022" data-name="그룹 34022" clip-path="url(#clip-path-6)">
              <g id="그룹_34021" data-name="그룹 34021" transform="translate(25.489 15.506)" opacity="0.23" style="mix-blend-mode: multiply;isolation: isolate">
                <g id="그룹_34020" data-name="그룹 34020">
                  <g id="그룹_34019" data-name="그룹 34019" clip-path="url(#clip-path-7)">
                    <path id="패스_12159" data-name="패스 12159" d="M87.541,73.931a20.541,20.541,0,0,1-3.841.04,27.643,27.643,0,0,1-8.023-1.688,5.068,5.068,0,0,0-1.967-.47A1.549,1.549,0,0,0,72.2,72.943a2.021,2.021,0,0,0,.664,1.574,11.85,11.85,0,0,0,6.257,3.5,22.8,22.8,0,0,0,7.249.29,21.386,21.386,0,0,0,6.692-1.566,10.745,10.745,0,0,0,5.12-4.448,3.464,3.464,0,0,0,.52-1.723,2.038,2.038,0,0,0-1.866-2.227,4.394,4.394,0,0,0-2.154.743,9.949,9.949,0,0,0-2.967,2.306,13.135,13.135,0,0,1-.922,1.171,5.563,5.563,0,0,1-3.258,1.368" transform="translate(-72.19 -68.342)" fill="#798584"/>
                  </g>
                </g>
              </g>
            </g>
          </g>
          <g id="그룹_34025" data-name="그룹 34025" transform="translate(0 0)">
            <g id="그룹_34024" data-name="그룹 34024" clip-path="url(#clip-path)">
              <path id="패스_12161" data-name="패스 12161" d="M77.79,58.828a4.426,4.426,0,0,0,.67,2.863,4.154,4.154,0,0,0,1.379,1.01,17.519,17.519,0,0,0,3.4,1.326,18.479,18.479,0,0,0,7.249.506c2.477-.319,5.766-.435,5.8-3.569.067-5.218-1.649-10.384-1.177-15.58.1-1.142.313-2.276.311-3.423,0-2.564-1.078-5.806-3.092-7.448-1.736-1.416-4.618-3.528-6.892-1.974a8.578,8.578,0,0,0-2.9,3.769,25.622,25.622,0,0,0-1.329,4.628L79.75,47.56c-.656,2.981-1.313,5.966-1.729,8.99a21.417,21.417,0,0,0-.231,2.279" transform="translate(-16.915 -6.957)" fill="#e37474"/>
              <path id="패스_12162" data-name="패스 12162" d="M68.984,67.6c-.268,1.189-.742,2.59-1.928,2.873-.57.135-1.179-.038-1.751.088s-1.087.844-.691,1.277a1.126,1.126,0,0,0,.538.271c1.823.534,3.212.948,4.878-.3a7.162,7.162,0,0,0,2.3-4c.736-2.706,1.607-5.448,2.222-8.16.631-2.781.951-5.655,2.038-8.313a9.523,9.523,0,0,0,1.053-3.4c.01-1.194-.837-2.51-2.031-2.486a2.194,2.194,0,0,0-1.733,1.127,6.336,6.336,0,0,0-.685,2.034c-.668,3.131-.822,6.782-2.019,9.743-1.165,2.88-1.508,6.21-2.193,9.246" transform="translate(-14.02 -9.884)" fill="#f0bf9c"/>
              <path id="패스_12163" data-name="패스 12163" d="M78.268,45.993c1.282.378,2.566.718,3.87.988q.81-2.672,1.592-5.351a12.011,12.011,0,0,0,.636-3.392,4.308,4.308,0,0,0-.976-2.829,3.077,3.077,0,0,0-.288-.283c-2.712-2.334-4.514,1.428-5.313,3.462q-1.295,3.3-2.4,6.666c.926.333,2.039.493,2.877.74" transform="translate(-16.394 -7.478)" fill="#e37474"/>
              <path id="패스_12164" data-name="패스 12164" d="M98.254,26.506a11.761,11.761,0,0,1,2.463,2.408c2.078,2.816,2.359,6.661,1.47,10.046a24.868,24.868,0,0,1-3.652,7.488c-.695,1.03-1.194,2.047-2.4,2.506a5.369,5.369,0,0,1-3.6.032,7.3,7.3,0,0,1-3.868-3.414,12.95,12.95,0,0,1-1.44-5.039,4.383,4.383,0,0,0-.241-1.259,5.015,5.015,0,0,0-.541-.879,17.855,17.855,0,0,1-2.589-8.065,8.611,8.611,0,0,0-.408-2.3c-.176-.458-.437-.877-.639-1.324-.551-1.219-.218-2.578-.875-3.713-.578-1-1.7-1.578-2.188-2.647a4.117,4.117,0,0,1-.3-2.865c.809-2.679,4.247-2.668,6.469-2.184,1.658.361,3.615,1,4.571,2.518,1,1.583,1.423,3.6,2.6,5.1a7.958,7.958,0,0,0,2.385,1.8,28.367,28.367,0,0,1,2.78,1.789" transform="translate(-17.246 -3.273)" fill="#eb9928"/>
              <path id="패스_12165" data-name="패스 12165" d="M98.62,13.57a1.253,1.253,0,0,1-.095-.675,1.276,1.276,0,0,1-.366-.094.949.949,0,0,1-.573-1.083,2.392,2.392,0,0,0-2.065.885,2.123,2.123,0,0,0,2.5,3.269,1.893,1.893,0,0,0,1.116-1.17c.106-.663-.255-.567-.519-1.132" transform="translate(-20.669 -2.546)" fill="#c2404b"/>
            </g>
          </g>
        </g>
      </g>
      <g id="그룹_34054" data-name="그룹 34054" transform="translate(1745.451 2268.676)" clip-path="url(#clip-path-9)">
        <path id="패스_12318" data-name="패스 12318" d="M20.063,9.54c0,2.525.007,5.05,0,7.577a3.172,3.172,0,0,1-2.429,3.353,4.438,4.438,0,0,1-4.694-.941,2.284,2.284,0,0,1-.68-2.547,2.79,2.79,0,0,1,2.727-2.075c3.014.359,2.982-1.31,2.931-3.492-.109-4.707-.028-4.709-4.6-3.84C7.881,8.606,7.881,8.606,7.883,14.1c0,1.965-.03,3.929.006,5.893a3.07,3.07,0,0,1-2.551,3.233c-1.812.478-3.6.283-4.813-1.358-1.4-1.908.133-4.442,3.068-4.429,2.182.009,2.147-.928,2.123-2.455C5.66,11.524,5.776,8.06,5.66,4.6,5.608,3.062,6.2,2.474,7.627,2.219,11.121,1.594,14.616.939,18.071.127c1.551-.365,2.032.031,2,1.556-.059,2.618-.017,5.237-.017,7.856Z" transform="translate(0 0.001)" fill="#ffe397"/>
      </g>
    </g>
  </g>
</svg>