<svg xmlns="http://www.w3.org/2000/svg" xmlns:xlink="http://www.w3.org/1999/xlink" id="그룹_34041" data-name="그룹 34041" width="99.268" height="71.419" viewBox="0 0 99.268 71.419"><script xmlns=""/>
  <defs>
    <clipPath id="clip-path">
      <rect id="사각형_11949" data-name="사각형 11949" width="99.268" height="71.419" fill="none"/>
    </clipPath>
  </defs>
  <g id="그룹_34040" data-name="그룹 34040" transform="translate(0 0)" clip-path="url(#clip-path)">
    <path id="패스_12244" data-name="패스 12244" d="M3.682,27.638a15.318,15.318,0,0,1,.577-1.832c.022-.057.045-.114.071-.169a11.051,11.051,0,0,1,7.137-6.6c2.2-.736,4.275-1.821,6.444-2.651a6.877,6.877,0,0,0,2.978-2.265c3.744-4.673,7.544-9.3,11.327-13.943a5.18,5.18,0,0,1,3.309.291q30,9.132,59.987,18.281a6.791,6.791,0,0,1,3.143,1.677,7.291,7.291,0,0,1-.589,3.738Q92.053,44.023,86.029,63.878c-2.643-.215-5.19-.472-6.424-3.46-2.35-5.686-7.259-7.22-12.416-3.883a4.971,4.971,0,0,1-4.474.642q-16.929-5.167-33.86-10.32a4.83,4.83,0,0,1-3.342-3.013c-2.319-5.623-7.351-7.105-12.436-3.761A3.656,3.656,0,0,1,10.158,41c-.9-.232-1.8-.457-2.7-.689a4.212,4.212,0,0,1-5.932-1.933c-.329-.144-.655-.291-.978-.453.2-.541.4-1.085.6-1.626a4.2,4.2,0,0,1,.169-.909Z" transform="translate(0.528 0)" fill="#f3ac31"/>
    <path id="패스_12245" data-name="패스 12245" d="M86.557,45.434c-3.435-.951-5.446-3.086-7.17-6.352-2.224-4.22-8.265-4.746-12.01-1.657a3.42,3.42,0,0,1-3.643.72q-17.23-5.338-34.5-10.528a2.957,2.957,0,0,1-2.362-2.271,8.459,8.459,0,0,0-13.681-4.271,3.362,3.362,0,0,1-3.458.62c-2.876-.768-5.566-2.289-8.654-2.21-1.669,1.848-1.417,2.909.941,3.649,3.5,1.1,7.011,2.141,10.518,3.208.9-.211,1.248-1.02,1.768-1.644q2.625-3.153,6.2-1.893a5.1,5.1,0,0,1,3.454,5.236c0,1.09-.047,2.124,1.1,2.726a18.331,18.331,0,0,0,3.389,1.218q16.8,5.131,33.606,10.243a14.011,14.011,0,0,0,3.708.868c1.238-.014,1.75-1.006,2.407-1.8C70.047,39,71.919,38.4,74.489,39.262q3.457,1.16,3.513,5.4c.01.646-.254,1.378.535,1.791,1.919.59,3.842,1.173,5.759,1.775a1.937,1.937,0,0,0,2.26-.394,1.658,1.658,0,0,0,0-2.4" transform="translate(0 18.444)" fill="#3d1e23"/>
    <path id="패스_12246" data-name="패스 12246" d="M24.267,18.572c3.309,1.008,6.631,1.968,9.916,3.047,1.331.437,2.041.3,2.458-1.2.982-3.549,2.084-7.066,3.212-10.572.394-1.218.061-1.754-1.148-2.11Q30.921,5.441,23.173,3a1.717,1.717,0,0,0-2.122.681Q17.124,8.617,13.129,13.5c-.833,1.01-.673,1.5.563,1.862,3.535,1.041,7.052,2.138,10.576,3.21" transform="translate(12.211 2.788)" fill="#2e2634"/>
    <path id="패스_12247" data-name="패스 12247" d="M35.242,31.28a5.738,5.738,0,0,1,6.273-2.348A5.765,5.765,0,0,1,46.2,33.989a18.7,18.7,0,0,1-.138,3.084,8.589,8.589,0,0,1-3.8,3.568,6.6,6.6,0,0,1-7.231-2.393c-1.63-1.5-1.862-2.647-.966-4.82a21.341,21.341,0,0,1,1.179-2.147" transform="translate(32.481 27.827)" fill="#e7552d"/>
    <path id="패스_12248" data-name="패스 12248" d="M15.011,20.962c2.706,1.11,3.7,3.4,3.352,7.749a3.605,3.605,0,0,1-3.535,3.537c-3,.774-5.552.124-7.5-2.409a8.995,8.995,0,0,1-.961-4.773c2.315-4.311,5.011-5.592,8.639-4.1" transform="translate(6.162 19.721)" fill="#e7552d"/>
    <path id="패스_12249" data-name="패스 12249" d="M23.717,16.481c2.947.9,5.907,1.762,8.836,2.716,1.022.333,1.468.124,1.766-.931.817-2.893,1.683-5.773,2.639-8.621.382-1.132-.073-1.423-1.022-1.7-4.466-1.325-8.92-2.7-13.372-4.07-.76-.234-1.336-.333-1.945.455-2.061,2.673-4.2,5.289-6.354,7.887-.835,1-.449,1.3.6,1.6,2.962.846,5.9,1.777,8.847,2.677l0-.008" transform="translate(13.373 3.585)" fill="#3d1e23"/>
    <path id="패스_12250" data-name="패스 12250" d="M25.845,35.936,58.867,46a2.689,2.689,0,0,0,3.356-1.789l7.566-24.82A2.689,2.689,0,0,0,68,16.039L34.98,5.973A2.688,2.688,0,0,0,31.624,7.76L24.058,32.58a2.688,2.688,0,0,0,1.787,3.356" transform="translate(23.181 5.669)" fill="#3d1e23"/>
    <path id="패스_12251" data-name="패스 12251" d="M41.744,34.772a20.248,20.248,0,0,0-8.149.4c-.163.039-.331.075-.5.112.01-.278-.022-.459-.12-.49a4.133,4.133,0,0,1-1.3-.478.554.554,0,0,1-.049-.514c.018-.057.037-.114.055-.173a.543.543,0,0,1,.018-.476,2.38,2.38,0,0,1,.307-.815,8.812,8.812,0,0,1,2.417-3.448,10.64,10.64,0,0,1,8.241-2.976,13.473,13.473,0,0,1,3.114.6c.317.27.779.189,1.1.459a13.343,13.343,0,0,1,2.687,1.88A13.966,13.966,0,0,1,51.7,31.642a10.651,10.651,0,0,1,1.4,6.377c-.031.547-.317,1.051-.309,1.6a2.725,2.725,0,0,0-.5.378c-1.933-3.419-7.007-4.61-10.552-5.222" transform="translate(30.584 25.068)" fill="#262728"/>
    <path id="패스_12252" data-name="패스 12252" d="M50.232,38.819A9.2,9.2,0,1,1,44.117,27.34a9.2,9.2,0,0,1,6.115,11.479" transform="translate(31.213 26.083)" fill="#262728"/>
    <path id="패스_12253" data-name="패스 12253" d="M45.844,36.551a6.292,6.292,0,1,1-4.167-7.893,6.31,6.31,0,0,1,4.167,7.893" transform="translate(32.476 27.484)" fill="#f7f8f8"/>
    <path id="패스_12254" data-name="패스 12254" d="M37.208,35.248a2.5,2.5,0,0,1-1.64-3.147,2.525,2.525,0,1,1,4.824,1.49,2.5,2.5,0,0,1-3.185,1.657" transform="translate(34.327 29.335)" fill="#262728"/>
    <path id="패스_12255" data-name="패스 12255" d="M14.51,26.6a20.283,20.283,0,0,0-8.149.4c-.163.039-.331.075-.5.112.01-.278-.022-.459-.12-.49a4.134,4.134,0,0,1-1.3-.478.551.551,0,0,1-.049-.512c.018-.059.037-.116.055-.175a.543.543,0,0,1,.018-.476,2.38,2.38,0,0,1,.307-.815,8.813,8.813,0,0,1,2.417-3.448,10.64,10.64,0,0,1,8.241-2.976,13.474,13.474,0,0,1,3.114.6c.317.27.779.189,1.1.459a13.343,13.343,0,0,1,2.687,1.88,13.966,13.966,0,0,1,2.143,2.783,10.651,10.651,0,0,1,1.4,6.377c-.031.547-.317,1.051-.309,1.6a2.725,2.725,0,0,0-.5.378C23.129,28.4,18.055,27.209,14.51,26.6" transform="translate(4.214 17.152)" fill="#262728"/>
    <path id="패스_12256" data-name="패스 12256" d="M23,30.644a9.2,9.2,0,1,1-6.115-11.479A9.2,9.2,0,0,1,23,30.644" transform="translate(4.843 18.167)" fill="#262728"/>
    <path id="패스_12257" data-name="패스 12257" d="M18.61,28.376a6.292,6.292,0,1,1-4.165-7.893,6.31,6.31,0,0,1,4.165,7.893" transform="translate(6.106 19.569)" fill="#f7f8f8"/>
    <path id="패스_12258" data-name="패스 12258" d="M9.974,27.073a2.5,2.5,0,0,1-1.64-3.147,2.525,2.525,0,1,1,4.824,1.49,2.5,2.5,0,0,1-3.185,1.657" transform="translate(7.957 21.42)" fill="#262728"/>
    <path id="패스_12259" data-name="패스 12259" d="M31.7,4.821a2.547,2.547,0,0,1,.118.433c.815,4.564,1.6,9.133,2.307,13.715a2.474,2.474,0,0,1-.028,1.287l-6.137-1.872a11.884,11.884,0,0,0-.382-2.767c-.661-3.529-1.466-7.031-1.98-10.587a5.279,5.279,0,0,1-.179-2.124Z" transform="translate(24.549 2.814)" fill="#e7552d"/>
    <path id="패스_12260" data-name="패스 12260" d="M44.421,8.7a1.843,1.843,0,0,1,.211.569c.905,4.545,1.653,9.115,2.326,13.7a2.129,2.129,0,0,1-.094,1.183l-5.909-1.8c-1.212-4.728-1.844-9.564-2.671-14.361a2.621,2.621,0,0,1-.01-1.159Z" transform="translate(37 6.608)" fill="#fafcfc"/>
    <path id="패스_12261" data-name="패스 12261" d="M41.329,7.758c.061.6.126,1.193.22,1.785.73,4.564,1.789,9.076,2.279,13.679l-5.677-1.73c-.037-.533-.171-1.061-.254-1.588-.618-3.935-1.346-7.853-1.978-11.788a5.51,5.51,0,0,1-.209-2.071Z" transform="translate(34.53 5.854)" fill="#e7552d"/>
    <path id="패스_12262" data-name="패스 12262" d="M36.532,6.291l.01.024a124.005,124.005,0,0,1,2.7,14.29,2.15,2.15,0,0,1-.092,1.189l-5.923-1.8a135.576,135.576,0,0,1-2.669-15,.9.9,0,0,1,.079-.49Z" transform="translate(29.583 4.351)" fill="#e7552d"/>
    <path id="패스_12263" data-name="패스 12263" d="M28.347,3.8q1.308,7.75,2.614,15.5l-5.6-1.706,0-.01c-.935-4.8-1.679-9.639-2.47-14.467a2.54,2.54,0,0,1-.01-.982Z" transform="translate(22.114 2.068)" fill="#fafcfc"/>
    <path id="패스_12264" data-name="패스 12264" d="M49.328,10.16a2.169,2.169,0,0,1,.238.663C50.448,15.2,51.4,19.569,52.014,24a2.353,2.353,0,0,1-.232,1.616L45.9,23.818a5.36,5.36,0,0,1-.24-.929q-1.1-6.286-2.134-12.583a2.247,2.247,0,0,1,.179-1.86Z" transform="translate(42.036 8.178)" fill="#fbfdfd"/>
    <path id="패스_12265" data-name="패스 12265" d="M51.306,10.807l0,.014c.905,5.153,1.726,10.32,2.575,15.482-.045-.016-.089-.033-.138-.049l-4.854-1.48v-.012L46.139,9.232Z" transform="translate(44.675 8.939)" fill="#e7552d"/>
    <path id="패스_12266" data-name="패스 12266" d="M33.136,5.268q1.367,7.768,2.736,15.538l-5.058-1.541q-1.278-7.741-2.555-15.482Z" transform="translate(27.362 3.662)" fill="#fafcfc"/>
    <path id="패스_12267" data-name="패스 12267" d="M38.39,6.871q1.287,7.744,2.576,15.488l-5.06-1.541c-.063-.646-.12-1.291-.224-1.929q-1.113-6.77-2.254-13.532Z" transform="translate(32.367 5.187)" fill="#fafbfc"/>
    <path id="패스_12268" data-name="패스 12268" d="M25.749,3.016q1.24,7.729,2.478,15.459L23.21,16.945l0-.03C22.418,11.722,21.578,6.535,20.454,1.4Z" transform="translate(19.805 1.358)" fill="#e7552d"/>
    <path id="패스_12269" data-name="패스 12269" d="M46.279,9.275q1.317,7.753,2.632,15.506l-5.232-1.594Q42.354,15.431,41.03,7.675Z" transform="translate(39.728 7.431)" fill="#e7552d"/>
    <path id="패스_12270" data-name="패스 12270" d="M43.054,15.212,41.6,19.938c1.3,2.7,2.454,3.055,5.043,1.535.5-1.59,1.277-3.1,1.323-4.816q-2.456-.72-4.913-1.445" transform="translate(40.281 14.729)" fill="#c74825"/>
    <path id="패스_12271" data-name="패스 12271" d="M40.5,14.433l-1.453,4.726c1.3,2.7,2.454,3.055,5.043,1.535.5-1.59,1.277-3.1,1.323-4.816q-2.456-.72-4.913-1.445" transform="translate(37.807 13.975)" fill="#fbfdfd"/>
    <path id="패스_12272" data-name="패스 12272" d="M48.164,16.769l-1.453,4.726c1.3,2.7,2.454,3.055,5.043,1.535.5-1.59,1.277-3.1,1.323-4.816q-2.456-.72-4.913-1.445" transform="translate(45.229 16.237)" fill="#c74825"/>
    <path id="패스_12273" data-name="패스 12273" d="M45.609,15.991l-1.453,4.726c1.3,2.7,2.454,3.055,5.043,1.535.5-1.59,1.277-3.1,1.323-4.816q-2.456-.72-4.913-1.445" transform="translate(42.755 15.484)" fill="#fbfdfd"/>
    <path id="패스_12274" data-name="패스 12274" d="M32.882,12.082l-1.453,4.726c1.3,2.7,2.454,3.055,5.043,1.535.5-1.59,1.277-3.1,1.323-4.816q-2.456-.72-4.913-1.445" transform="translate(30.432 11.699)" fill="#c74825"/>
    <path id="패스_12275" data-name="패스 12275" d="M30.327,11.3l-1.453,4.726c1.3,2.7,2.454,3.055,5.043,1.535.5-1.59,1.277-3.1,1.323-4.816q-2.456-.72-4.913-1.445" transform="translate(27.958 10.944)" fill="#fbfdfd"/>
    <path id="패스_12276" data-name="패스 12276" d="M37.992,13.64l-1.453,4.726c1.3,2.7,2.454,3.055,5.043,1.535.5-1.59,1.277-3.1,1.323-4.816q-2.456-.72-4.913-1.445" transform="translate(35.38 13.207)" fill="#c74825"/>
    <path id="패스_12277" data-name="패스 12277" d="M35.437,12.861l-1.453,4.726c1.3,2.7,2.454,3.055,5.043,1.535.5-1.59,1.277-3.1,1.323-4.816q-2.456-.72-4.913-1.445" transform="translate(32.906 12.453)" fill="#fbfdfd"/>
    <path id="패스_12278" data-name="패스 12278" d="M22.713,9.044,21.26,13.77c1.3,2.7,2.454,3.055,5.043,1.535.5-1.59,1.277-3.1,1.323-4.816q-2.456-.72-4.913-1.445" transform="translate(20.585 8.757)" fill="#c74825"/>
    <path id="패스_12279" data-name="패스 12279" d="M17.945.631l5.543,1.691c.244.372,2.761,14.9,2.417,15.439l-.108-.031a24.525,24.525,0,0,1-1.275,4.188c-2.6,1.518-3.759,1.163-5.07-1.543q.644-2.093,1.289-4.188S17.512,1.6,17.945.631" transform="translate(17.337 0.611)" fill="#fbfdfd"/>
    <path id="패스_12280" data-name="패스 12280" d="M27.823,10.6,26.37,15.328c1.3,2.7,2.454,3.055,5.043,1.535.5-1.59,1.277-3.1,1.323-4.816q-2.456-.72-4.913-1.445" transform="translate(25.533 10.266)" fill="#c74825"/>
    <path id="패스_12281" data-name="패스 12281" d="M25.268,9.823l-1.453,4.726c1.3,2.7,2.454,3.055,5.043,1.535.5-1.59,1.277-3.1,1.323-4.816q-2.456-.72-4.913-1.445" transform="translate(23.059 9.511)" fill="#fbfdfd"/>
  </g>
</svg>