<svg xmlns="http://www.w3.org/2000/svg" xmlns:xlink="http://www.w3.org/1999/xlink" width="37.643" height="82.035" viewBox="0 0 37.643 82.035"><script xmlns=""/>
  <defs>
    <clipPath id="clip-path">
      <rect id="사각형_11951" data-name="사각형 11951" width="37.643" height="82.035" fill="none"/>
    </clipPath>
  </defs>
  <g id="그룹_34053" data-name="그룹 34053" transform="translate(0 0)">
    <g id="그룹_34049" data-name="그룹 34049" transform="translate(0 -0.001)" clip-path="url(#clip-path)">
      <path id="패스_12305" data-name="패스 12305" d="M24.062,15.8a7.588,7.588,0,0,1-1.285,3.9c-.118.183-.219.615-.621.3a2.048,2.048,0,0,1-.06-1.107c.017-.173.178-.243.314-.321a3.825,3.825,0,0,0,.878-.574A.856.856,0,0,0,23.521,17a.533.533,0,0,0-.831-.263c-.383.22-.438.2-.611-.214a2.387,2.387,0,0,1-.1-1.453c.137-.657-.075-.937-.751-1.025a3.73,3.73,0,0,0-.584-.015,3.075,3.075,0,0,1-1.329-.26c-.047-.02-.1-.039-.144-.059-.871-.361-1.5-.445-2.03.759-.09.206-.144.481-.435.545a2.842,2.842,0,0,1-.337-1.638,3.309,3.309,0,0,1,.215-1.022.825.825,0,0,1,1.091-.552,1.745,1.745,0,0,0,1.63-.181,2.12,2.12,0,0,1,2.446.247,3.107,3.107,0,0,1,1.344,1.6c.027.1.093.066.149.05.378-.1.522.15.622.429a5.872,5.872,0,0,1,.2,1.848" transform="translate(4.463 3.093)" fill="#00132b"/>
      <path id="패스_12306" data-name="패스 12306" d="M19.018,20.727a1.619,1.619,0,0,0,1.208-.335,4.818,4.818,0,0,0,1.5-1.475.8.8,0,0,1,.173-.15c.1,1.221.06,2.452.255,3.667a3.642,3.642,0,0,0-1.6,1.193s-.27.228-.5.437c-1.392,1.288-1.865,4.955-2.706,5.037-.652.065-1.557-1.993-1.719-3.883a7.772,7.772,0,0,1,.382-3.121,2.561,2.561,0,0,0,1.667-1.031,1.73,1.73,0,0,0,.154-.29l1.182-.048" transform="translate(4.256 5.118)" fill="#e6beaf"/>
      <path id="패스_12307" data-name="패스 12307" d="M21.291,16.756c-.025-.017-.083-.032-.1-.067a.137.137,0,0,1,.069-.2,1.028,1.028,0,0,0,.355-.293c.048-.061.109-.13.192-.078s.081.157.025.237a.916.916,0,0,1-.538.4" transform="translate(5.773 4.392)" fill="#bf7b6c"/>
      <path id="패스_12308" data-name="패스 12308" d="M16.287,17.2a3.253,3.253,0,0,1-.227-1.9c.033-.225.15-.454.447-.27.136.085.151.009.181-.078.042-.122.075-.247.112-.369a3.431,3.431,0,0,0,.472-.846c.375-.751.854-1,1.618-.69a6.7,6.7,0,0,0,2.386.47c.841.022,1.069.373.9,1.2a2.064,2.064,0,0,0,.269,1.718c.459-.423.8-.475,1.111-.168a.974.974,0,0,1-.07,1.368,2.458,2.458,0,0,1-.854.533.548.548,0,0,0-.391.62c.014.26.006.519.009.779a2.64,2.64,0,0,0-.461.8,4.149,4.149,0,0,1-2.432,2.044c-.163.048-.35.16-.477-.073v0a1.389,1.389,0,0,1-1.158.039,1.664,1.664,0,0,1-.542-.439,2.337,2.337,0,0,1-.932-1.713,8.318,8.318,0,0,1,.108-2.549.769.769,0,0,0-.073-.473" transform="translate(4.367 3.523)" fill="#fad8c9"/>
      <path id="패스_12309" data-name="패스 12309" d="M30.428,41.353a7.842,7.842,0,0,0,3.715-.854,1.839,1.839,0,0,0,1.116-2.45,43.7,43.7,0,0,0-6.49-12,3.166,3.166,0,0,0-3.006-1.311c-1.05.276-1.553,1.185-2.2,1.922-1.525,1.741-2.7,3.757-4.47,5.851a12.943,12.943,0,0,1-.559-5.356,4.653,4.653,0,0,0-.178-3.062c-1.789-2.794-3.551-5.606-5.381-8.372a3.489,3.489,0,0,1-.546-2.68,39.262,39.262,0,0,0,.751-5.488,5.53,5.53,0,0,0-3.132-1.138c-.267.643-.545,1.282-.8,1.929a13.54,13.54,0,0,0,.391,11.193c1.428,3.058,2.6,6.236,3.906,9.352a9.238,9.238,0,0,1,.615,5.583A17.915,17.915,0,0,0,13.8,37.74a7.324,7.324,0,0,1-2.183,5.268c-.51.509-.556.925-.107,1.442.132.706.722.956,1.261,1.24a6.482,6.482,0,0,0,3.4.865,23.793,23.793,0,0,1,8.519,1.133,4.635,4.635,0,0,0,2.516-.336l1.237-.4a35.53,35.53,0,0,1-1.344-5.39.6.6,0,0,0-.465-.484c-2.041-.257-4.076-.942-6.14-.132-1.69.722-1.719.722-2.641.029-.028-.568.471-.619.816-.82.72-1.278,1.871-1.255,3.132-1.137a8.334,8.334,0,0,0,4.957-.664c.417-1.114.09-2.339.6-3.607.667,1.03,1.613,1.719,2.337,2.651-.342.419-1.044.305-1.191.906.1,1.008.281,2,.369,3a2.454,2.454,0,0,0,1.557.048" transform="translate(2.243 1.751)" fill="#a42c2d"/>
      <path id="패스_12310" data-name="패스 12310" d="M21.953,20.958,17.521,26.65l-.354-.064a22.033,22.033,0,0,1,.168-5.644l-1.088-.633c.059,2.309-.626,4.6-.051,6.93a6.989,6.989,0,0,0,.813,2.183c2.279-2.963,4.158-5.964,6.645-8.467l-1.7,0" transform="translate(4.353 5.539)" fill="#a42c2d"/>
      <path id="패스_12311" data-name="패스 12311" d="M12.7,6.491,10.5,5.323c-.736.19-.863.748-.845,1.394A7.685,7.685,0,0,0,12.79,7.856a1.008,1.008,0,0,0-.1-1.364" transform="translate(2.633 1.452)" fill="#a42c2d"/>
      <path id="패스_12312" data-name="패스 12312" d="M.035,46.838A64.644,64.644,0,0,0,3.065,61.553c.176.554.395.818.944.827a.694.694,0,0,0,.935-.059c.009-.02.014-.042.023-.064l.7-.2,0-.005.02.009a11.643,11.643,0,0,0,.2-5.182c-.316-3.468-.087-6.934-.191-10.4-.022-.742.477-.925,1.046-1.133,2.035-.745,4.2-.657,6.3-1,1.574-.256,3.182-.3,4.886-.456-.818,2.222-1.619,4.381-2.405,6.544a21.77,21.77,0,0,0-.955,3.858c-.54,3.221,1.259,5.179,3.636,6.838A72.347,72.347,0,0,0,30.5,67.7a2.077,2.077,0,0,0,1.768.046c.508-.433.966-.883.62-1.639-.625-1.436-2.09-1.971-3.179-2.893-2.638-2.235-5.358-4.374-8.078-6.511a2.1,2.1,0,0,1-.57-3.081c2.073-3.738,4.547-7.226,6.686-10.921A9.557,9.557,0,0,0,29.2,39.479h0c.084-.092.165-.183.248-.276l-2.58.013A17.3,17.3,0,0,0,19.2,38a7.348,7.348,0,0,1-5.446-1.7A58.868,58.868,0,0,0,3.138,40.355c-2.693,1.484-3.3,3.822-3.1,6.483m19.4,9.345a1.852,1.852,0,0,1-.188-.384c.056.129.12.256.188.384" transform="translate(0 9.9)" fill="#eab279"/>
      <path id="패스_12313" data-name="패스 12313" d="M13.626,35.327c.584-.869,1.6-.757,2.447-1.5-1.163.107-2.069.19-3.351.305,1.092-.85,2.229-.629,3.131-1.358a15.558,15.558,0,0,0-3.075.15c1.572-1.193,3.228-.653,4.662-1.114-.053-.841-1.152-1.121-.984-2.109a17.563,17.563,0,0,1,2.381,1.987c.843.657,8.643-.056,8.922.089.575.918,1.033,1.853.452,2.946-.284.036-9,.261-9.732.482-1.261.381-2.419.8-3.468,1.217.285-.872,1.088-.914,1.395-1.555-.97-.193-1.742.494-2.78.463" transform="translate(3.469 8.099)" fill="#e6beaf"/>
      <path id="패스_12314" data-name="패스 12314" d="M12.293,7.841a3.5,3.5,0,0,0-.859-.579,3.44,3.44,0,0,0-1.34-.327c.611-.99,1.235-2.094,1.84-3.313.585-1.18,1.075-2.307,1.488-3.36.44.8-.079,1.419.178,2.082.8-.575.832-1.609,1.565-2.344.233,1.021-.545,1.686-.58,2.814L16.657.163C16.53,1.54,15.591,2.217,15.5,3.374c.854-.6,1.186-1.481,2-2.343-.206,1.963-1.733,2.8-2.38,4.159.649.537,1.606-.071,2.209.728a17.542,17.542,0,0,1-3.077.374,2.169,2.169,0,0,0-1.959,1.549" transform="translate(2.753 0.001)" fill="#e6beaf"/>
      <path id="패스_12315" data-name="패스 12315" d="M23.6,61.407a3.986,3.986,0,0,0,2.493-2.464,3.5,3.5,0,0,1,.9.864.834.834,0,0,1-.127,1.4,2.956,2.956,0,0,0-1,1.33,11.986,11.986,0,0,1-2.05,2.829c-.276.27-.527.8-1.016.5-.4-.253-.154-.708-.062-1.074.283-1.13.571-2.258.859-3.387" transform="translate(6.158 16.075)" fill="#541a1e"/>
      <path id="패스_12316" data-name="패스 12316" d="M6.379,54.974c-1.128.633-2.226,1.355-3.616,1.2-.658,1.068-1.322,2.132-1.973,3.2-.172.284-.425.61-.157.933.342.41.7.047,1-.107A12.915,12.915,0,0,0,4.4,58.132a5.038,5.038,0,0,1,1.75-1.375c.961-.333.551-1.128.233-1.783" transform="translate(0.141 14.992)" fill="#541a1e"/>
    </g>
  </g>
</svg>